<svg width="550" height="539" viewBox="0 0 550 539" fill="none" xmlns="http://www.w3.org/2000/svg">
<path fill-rule="evenodd" clip-rule="evenodd" d="M276.277 0.000144804C140.812 -0.137639 25.2752 98.0675 3.58549 231.785C-18.1042 365.503 60.4669 495.194 189.03 537.883C202.922 540.425 207.835 531.785 207.835 524.498C207.835 517.214 207.835 500.611 207.835 477.571C130.753 494.345 114.489 440.469 114.489 440.469C109.376 423.773 98.5115 409.428 83.8256 399.981C58.922 383.04 85.8587 383.04 85.8587 383.04C103.547 385.538 119.103 396.034 128.042 411.502C135.613 425.23 148.339 435.374 163.407 439.699C178.476 444.022 194.646 442.166 208.343 434.542C209.407 420.605 215.415 407.506 225.285 397.61C163.957 390.665 99.5809 366.946 99.5809 262.08C99.1599 234.686 109.29 208.179 127.873 188.047C119.596 164.228 120.563 138.17 130.583 115.031C130.583 115.031 153.793 107.577 206.48 143.322C251.723 130.9 299.476 130.9 344.721 143.322C397.408 107.577 420.448 115.031 420.448 115.031C430.607 137.925 431.814 163.797 423.834 187.539C442.417 207.67 452.548 234.178 452.128 261.571C452.128 367.625 387.582 390.833 326.084 397.102C339.426 410.513 346.288 429.058 344.889 447.924C344.889 484.858 344.889 514.673 344.889 523.651C344.889 532.63 349.801 539.578 363.863 536.866C490.9 493.073 567.93 364.147 546.294 231.526C524.658 98.9063 410.646 1.14686 276.277 0.000144804Z" fill="#D8D8FE"/>
</svg>
