<svg width="576" height="575" viewBox="0 0 576 575" fill="none" xmlns="http://www.w3.org/2000/svg">
<path d="M134.078 184.671H18.445C13.313 184.671 9.15466 188.831 9.15466 193.961V565.44C9.15466 570.572 13.313 574.731 18.445 574.731H134.078C139.21 574.731 143.368 570.572 143.368 565.44V193.961C143.368 188.831 139.21 184.671 134.078 184.671Z" fill="#D8D8FE"/>
<path d="M76.3033 0C34.2293 0 0 34.1921 0 76.2197C0 118.266 34.2293 152.471 76.3033 152.471C118.344 152.471 152.545 118.264 152.545 76.2197C152.547 34.1921 118.344 0 76.3033 0Z" fill="#D8D8FE"/>
<path d="M428.198 175.438C381.756 175.438 347.425 195.403 326.601 218.088V193.962C326.601 188.831 322.443 184.671 317.311 184.671H206.572C201.44 184.671 197.282 188.831 197.282 193.962V565.441C197.282 570.573 201.44 574.731 206.572 574.731H321.952C327.084 574.731 331.243 570.573 331.243 565.441V381.645C331.243 319.71 348.066 295.581 391.24 295.581C438.26 295.581 441.996 334.262 441.996 384.831V565.442C441.996 570.574 446.155 574.733 451.287 574.733H566.71C571.842 574.733 576 570.574 576 565.442V361.68C576 269.585 558.439 175.438 428.198 175.438Z" fill="#D8D8FE"/>
</svg>
