<svg width="77" height="83" viewBox="0 0 77 83" fill="none" xmlns="http://www.w3.org/2000/svg">
<g clip-path="url(#clip0_5_5)">
<path d="M48.7647 -0.0592781C48.9005 -0.0605343 49.0363 -0.0617905 49.1763 -0.0630848C51.6792 -0.0808591 54.1595 0.141672 56.5592 0.899174C56.6884 0.939131 56.8175 0.979087 56.9506 1.02025C58.2475 1.43964 59.4397 2.01596 60.6237 2.68763C60.7784 2.77342 60.9331 2.85922 61.0924 2.94762C65.0812 5.31934 67.5502 9.43889 68.6938 13.8525C69.3195 16.4778 69.5655 19.2808 69.4417 21.9752C69.4333 22.1735 69.4333 22.1735 69.4246 22.3758C69.2017 27.1106 68.2302 31.7405 67.1892 36.3511C66.9195 37.5462 66.6595 38.7428 66.4167 39.9438C66.3906 40.0707 66.3645 40.1977 66.3377 40.3286C65.314 45.464 66.3344 50.4428 67.4941 55.446C69.0503 62.2047 68.7397 69.8214 65.0715 75.8666C63.2712 78.5463 60.9624 80.279 57.7894 80.9448C57.1709 81.0133 56.5611 81.0279 55.9392 81.0238C55.7738 81.0228 55.6085 81.0218 55.4382 81.0207C54.0415 80.9879 52.9246 80.751 51.6483 80.1543C51.3724 80.0274 51.3724 80.0274 51.091 79.898C49.7537 79.2458 48.5568 78.3995 47.3492 77.5346C46.4424 76.8859 45.5239 76.2646 44.5821 75.6683C44.4701 75.5971 44.3581 75.5258 44.2427 75.4523C44.0185 75.3115 43.7928 75.173 43.5658 75.0369C43.2647 74.8523 42.9684 74.6599 42.6755 74.4625C41.265 73.5626 40.1627 73.3345 38.4749 73.3687C38.2367 73.3688 37.9985 73.3684 37.7602 73.3674C37.252 73.3664 36.7439 73.3693 36.2357 73.3755C35.4307 73.385 34.6259 73.3853 33.8209 73.3845C32.4029 73.384 30.985 73.3912 29.567 73.4002C27.4308 73.4138 25.2947 73.4217 23.1585 73.4217C22.3596 73.422 21.5608 73.4264 20.7618 73.4342C20.264 73.4384 19.7663 73.4392 19.2685 73.4393C19.0391 73.44 18.8097 73.4421 18.5803 73.4456C17.2168 73.4661 16.089 73.3952 14.9591 72.5657C14.0006 71.5492 13.9864 70.5766 13.9473 69.2389C13.8963 68.602 13.8963 68.602 13.5405 68.0858C13.0496 67.1277 13.1458 66.0962 13.1599 65.0451C13.1607 64.8223 13.1612 64.5995 13.1615 64.3768C13.1627 63.9119 13.1659 63.4472 13.1708 62.9824C13.1771 62.3884 13.1799 61.7945 13.1814 61.2006C13.183 60.631 13.1861 60.0615 13.1895 59.492C13.19 59.3844 13.1905 59.2768 13.1911 59.1659C13.1929 58.8596 13.196 58.5533 13.1991 58.2469C13.2007 58.0731 13.2022 57.8993 13.2038 57.7202C13.227 57.2305 13.227 57.2305 13.3181 56.7112C13.4292 56.2883 13.4292 56.2883 13.2144 55.9856C13.1278 55.9044 13.0413 55.8233 12.952 55.7397C12.8592 55.65 12.7663 55.5604 12.6706 55.468C12.5222 55.3329 12.5222 55.3329 12.3708 55.195C12.2233 55.0544 12.2233 55.0544 12.0728 54.9109C11.8301 54.6803 11.584 54.4531 11.3374 54.2267C11.2926 54.4262 11.2477 54.6257 11.2015 54.8313C11.0477 55.5152 10.796 55.8439 10.2352 56.2819C9.51376 56.6919 8.97982 56.8344 8.17584 56.6889C7.51602 56.491 7.06979 56.1419 6.64302 55.61C6.28733 54.783 6.21789 54.176 6.47572 53.3275C6.83325 52.6933 7.15443 52.1437 7.87709 51.9104C7.98887 51.8851 8.10065 51.8597 8.21582 51.8336C8.41454 51.7886 8.61326 51.7436 8.818 51.6971C8.7094 51.5553 8.60081 51.4135 8.48892 51.2673C5.63018 47.4791 4.02721 43.3834 3.93661 38.5752C3.92747 38.3735 3.92747 38.3735 3.91815 38.1677C3.7215 31.016 6.845 24.3114 11.18 18.8133C11.2492 18.7251 11.3183 18.6369 11.3896 18.546C13.5449 15.8315 16.1076 13.275 18.8957 11.2248C19.136 11.0248 19.3755 10.8239 19.6141 10.622C26.017 5.47919 34.0374 2.05131 42.0429 0.474293C42.1697 0.448182 42.2965 0.422071 42.4271 0.395169C44.5262 -0.0214299 46.6327 -0.048947 48.7647 -0.0592781ZM8.50307 53.5943C8.22126 53.9779 8.22126 53.9779 8.03068 54.3848C8.23853 54.5935 8.44638 54.8021 8.66053 55.0171C8.92035 54.9128 9.18016 54.8085 9.44785 54.701C9.47413 54.3189 9.47413 54.3189 9.44785 53.9105C9.34393 53.8061 9.24 53.7018 9.13293 53.5943C8.92507 53.5943 8.71722 53.5943 8.50307 53.5943Z" fill="#9DAEFC"/>
<path d="M48.7647 -0.0592781C48.9005 -0.0605343 49.0363 -0.0617905 49.1763 -0.0630848C51.6792 -0.0808591 54.1595 0.141672 56.5592 0.899174C56.6884 0.939131 56.8175 0.979087 56.9506 1.02025C58.2475 1.43964 59.4397 2.01596 60.6237 2.68763C60.7784 2.77342 60.9331 2.85922 61.0924 2.94762C65.0812 5.31934 67.5502 9.43889 68.6938 13.8525C69.3195 16.4778 69.5655 19.2808 69.4417 21.9752C69.4333 22.1735 69.4333 22.1735 69.4246 22.3758C69.2017 27.1106 68.2302 31.7405 67.1892 36.3511C66.9195 37.5462 66.6595 38.7428 66.4167 39.9438C66.3906 40.0707 66.3645 40.1977 66.3377 40.3286C65.314 45.464 66.3344 50.4428 67.4941 55.446C69.0503 62.2047 68.7397 69.8214 65.0715 75.8666C63.2712 78.5463 60.9624 80.279 57.7894 80.9448C57.1709 81.0133 56.5611 81.0279 55.9392 81.0238C55.7738 81.0228 55.6085 81.0218 55.4382 81.0207C54.0415 80.9879 52.9246 80.751 51.6483 80.1543C51.3724 80.0274 51.3724 80.0274 51.091 79.898C49.7535 79.2457 48.5564 78.3995 47.3488 77.5342C45.237 76.023 43.0149 74.6802 40.7832 73.3562C40.6219 73.2602 40.6219 73.2602 40.4573 73.1624C38.9467 72.2644 37.4288 71.3803 35.9018 70.5105C35.9018 70.4583 35.9018 70.4061 35.9018 70.3524C36.095 70.3515 36.2882 70.3505 36.4873 70.3496C38.3084 70.3405 40.1295 70.329 41.9505 70.3151C42.8868 70.3081 43.823 70.3018 44.7592 70.2976C45.6628 70.2935 46.5663 70.2871 47.4699 70.2792C47.8146 70.2765 48.1592 70.2747 48.5039 70.2737C48.9868 70.2722 49.4696 70.2678 49.9525 70.2626C50.1661 70.263 50.1661 70.263 50.384 70.2633C51.1844 70.2514 51.7425 70.1669 52.4356 69.72C52.8852 69.1933 53.0006 68.7049 52.9744 68.01C52.7629 66.9111 51.953 65.7832 51.0615 65.1433C50.9108 65.0526 50.7602 64.9619 50.6051 64.8685C49.7838 64.37 49.7838 64.37 49.4438 64.0286C49.4017 63.5988 49.4017 63.5988 49.398 63.044C49.396 62.8363 49.394 62.6287 49.3919 62.4147C49.3914 62.1859 49.3911 61.957 49.3909 61.7282C49.3898 61.492 49.3888 61.2558 49.3877 61.0197C49.3858 60.5219 49.3852 60.0242 49.3854 59.5265C49.3854 59.0222 49.3833 58.518 49.3789 58.0137C49.3502 54.6328 49.3736 51.3469 50.6247 48.1499C50.7204 47.8871 50.8158 47.6243 50.9108 47.3613C50.9561 47.2378 51.0013 47.1144 51.048 46.9873C52.0095 44.3617 52.1805 41.8536 51.1759 39.2076C50.6199 38.0171 49.8614 36.9821 49.0306 35.9728C48.3599 35.1412 48.1394 34.419 48.1545 33.3581C48.1555 33.2016 48.1566 33.0451 48.1576 32.8838C48.1846 32.3998 48.2533 31.9373 48.3415 31.461C48.5242 31.4532 48.7069 31.4455 48.8951 31.4375C51.5861 31.3134 54.0485 31.0985 56.1458 29.1982C57.0538 28.1931 57.6879 27.2171 57.8583 25.8486C57.7445 24.9348 57.3798 24.2738 56.7658 23.5957C56.3796 23.1621 56.2433 22.7373 56.0769 22.1827C55.5019 20.3218 54.278 18.8421 52.8655 17.5338C52.593 17.2324 52.593 17.2324 52.593 16.7482C52.6978 16.2322 52.8865 15.7565 53.0753 15.2661C53.3631 14.4954 53.4949 13.9409 53.3804 13.1219C53.0859 12.7376 52.8637 12.5463 52.4356 12.3314C51.437 12.3399 50.5282 12.614 49.6012 12.9638C49.6142 12.7714 49.6272 12.5791 49.6406 12.3808C49.6355 11.8979 49.5915 11.6777 49.3847 11.2248C48.8552 10.8197 48.5411 10.7773 47.8839 10.8122C45.3623 11.3109 42.822 13.0284 40.9407 14.7029C40.8632 14.7703 40.7856 14.8378 40.7057 14.9074C39.5546 15.9102 38.5696 16.9678 37.6339 18.181C37.4841 18.3521 37.4841 18.3521 37.3313 18.5268C37.0772 18.8264 36.8622 19.0925 36.6892 19.4457C36.7395 19.7441 36.791 20.0428 36.862 20.3369C34.6224 21.827 33.4611 24.3467 33.4611 24.3467C33.4611 24.3467 32.2014 27.7457 31.8078 28.3781C31.4141 29.0105 30.6268 29.7219 29.6033 30.5124C28.5797 31.3029 27.9499 32.0933 26.7689 33.3581C25.5879 34.6229 24.5644 36.6781 24.5644 36.6781L22.5174 41.5791C22.4168 42.2352 22.1947 42.7669 21.9171 43.3675C20.397 46.805 20.4007 50.5344 20.3129 54.2267C20.1963 54.2282 20.0797 54.2296 19.9596 54.2312C19.4244 54.2397 18.8895 54.2529 18.3544 54.2662C18.171 54.2684 17.9876 54.2707 17.7987 54.273C16.4879 54.3101 15.4259 54.4605 14.4221 55.3556C14.2933 55.5206 14.2933 55.5206 14.1619 55.6891C14.0277 55.8566 14.0277 55.8566 13.8907 56.0275C13.8276 56.1114 13.7644 56.1954 13.6994 56.2819C13.0579 56.0274 12.6341 55.5644 12.1641 55.0764C12.0843 54.9949 12.0046 54.9134 11.9224 54.8294C11.7267 54.6292 11.5319 54.428 11.3374 54.2267C11.3017 54.4191 11.266 54.6114 11.2292 54.8096C11.0557 55.4943 10.7999 55.841 10.2352 56.2819C9.51376 56.6919 8.97982 56.8344 8.17584 56.6889C7.51602 56.491 7.06979 56.1419 6.64302 55.61C6.28733 54.783 6.21789 54.176 6.47572 53.3275C6.83325 52.6933 7.15443 52.1437 7.87709 51.9104C7.98887 51.8851 8.10065 51.8597 8.21582 51.8336C8.41454 51.7886 8.61326 51.7436 8.818 51.6971C8.7094 51.5553 8.60081 51.4135 8.48892 51.2673C5.63018 47.4791 4.02721 43.3834 3.93661 38.5752C3.92747 38.3735 3.92747 38.3735 3.91815 38.1677C3.7215 31.016 6.845 24.3114 11.18 18.8133C11.2492 18.7251 11.3183 18.6369 11.3896 18.546C13.5449 15.8315 16.1076 13.275 18.8957 11.2248C19.136 11.0248 19.3755 10.8239 19.6141 10.622C26.017 5.47919 34.0374 2.05131 42.0429 0.474293C42.1697 0.448182 42.2965 0.422071 42.4271 0.395169C44.5262 -0.0214299 46.6327 -0.048947 48.7647 -0.0592781ZM8.50307 53.5943C8.22126 53.9779 8.22126 53.9779 8.03068 54.3848C8.23853 54.5935 8.44638 54.8021 8.66053 55.0171C8.92035 54.9128 9.18016 54.8085 9.44785 54.701C9.47413 54.3189 9.47413 54.3189 9.44785 53.9105C9.34393 53.8061 9.24 53.7018 9.13293 53.5943C8.92507 53.5943 8.71722 53.5943 8.50307 53.5943Z" fill="#BBFEE1"/>
<path d="M49.6799 11.699C49.4219 11.2327 49.3207 11.0253 48.8926 10.7505C47.3981 10.4996 47.3981 10.4996 44.1687 12.1733C41.5391 13.6411 37.4041 16.667 36.4782 19.7242C36.4529 20.0781 36.4529 20.0781 36.6301 20.3646C36.9253 20.5524 36.9253 20.5524 37.3387 20.5919C37.7127 20.5524 37.7127 20.5524 37.8701 20.3943C40.3228 17.0125 43.7302 13.4547 47.9478 12.4895C47.8322 12.8135 47.7171 13.1376 47.6043 13.4625L47.4656 13.863C47.2335 14.509 47.0077 15.1016 46.9938 15.7928C47.1605 16.1257 47.1605 16.1257 47.588 16.3863C49.4181 17.1423 51.5469 18.1625 52.7782 19.7847L52.9867 20.0781C53.639 20.9104 54.1248 21.6855 54.4826 22.6867C54.6718 23.2273 54.8505 23.6759 55.1696 24.1521C55.6292 24.7541 56.0498 25.2037 56.0671 25.9869C55.9141 26.9765 55.4114 27.6037 54.7188 28.299C53.1412 29.6984 50.9113 29.7692 48.9221 29.7318L48.4181 29.7125L47.9447 29.6978C47.5211 29.6781 47.5211 29.6781 47.1605 29.7219C46.7966 30.0007 46.7029 30.1257 46.6075 30.5797C46.4724 32.8085 46.1972 35.0738 47.6415 36.9375C48.3494 37.775 48.9898 38.5729 49.488 39.5553C50.4062 41.6738 50.4142 43.8788 49.5932 46.0218C49.1316 47.2072 48.7056 48.3921 48.3921 49.6267L48.2923 50.0371C47.6231 52.6907 47.5789 55.4255 47.5668 58.1472C47.5659 58.7644 47.5639 59.3814 47.5562 59.9986C47.551 60.4082 47.5476 60.8178 47.5461 61.2275L47.5449 61.8158C47.5333 62.51 47.5314 63.1828 47.6329 63.8705C47.9924 64.9167 48.4022 65.5551 49.3773 66.0832C49.7117 66.25 49.7117 66.25 50.113 66.5482C50.7727 67.1554 51.1066 67.7353 51.2546 68.6133C48.2794 68.6295 45.3043 68.6464 42.3291 68.6644C40.8832 68.6731 39.4373 68.6818 37.9914 68.6896C36.721 68.6964 35.4506 68.7035 34.1803 68.7114L33.9917 68.7126C33.3841 68.7165 32.7766 68.7203 32.1691 68.7235C31.5269 68.7266 30.8847 68.7299 30.2425 68.7342L29.535 68.739L28.8585 68.7417L28.2476 68.7464C27.8665 68.7486 27.4447 68.6463 27.1625 68.9295L27.0051 69.5619H24.1707V69.0876C23.8558 68.7714 23.8558 68.7714 23.5504 68.7317L23.1726 68.7311L22.744 68.7277C22.4298 68.728 22.1156 68.7266 21.8014 68.7235C21.2954 68.7182 20.7894 68.7147 20.2833 68.7121C19.7801 68.7112 19.2769 68.7098 18.7737 68.7042L18.2935 68.6986C17.1869 68.7044 16.3963 68.6927 15.5102 67.9809C14.8322 67.1512 14.8042 66.2366 14.7928 65.1992L14.7967 64.6202L14.7963 64.4915C14.7948 64.0193 14.7934 63.547 14.796 63.0748C14.7998 62.5386 14.8018 62.0026 14.7982 61.4664C14.7953 61.0456 14.7944 60.6251 14.7949 60.2043L14.7967 59.6007C14.7891 58.4611 14.6757 57.4703 15.5102 56.5981C16.2127 55.9526 16.7856 55.8928 17.6982 55.89L18.1785 55.8984C18.517 55.8995 18.8555 55.9008 19.194 55.9024C19.7255 55.9094 20.2569 55.9163 20.7884 55.919C21.1365 55.9203 21.4846 55.922 21.8327 55.9242L22.3316 55.928L22.8138 55.9316L23.2629 55.9377C24.075 55.9474 24.6648 56.0256 25.273 56.5981C25.7347 57.2895 25.9744 57.7588 25.9782 58.6134L25.9699 58.9374C25.9683 59.2888 25.9658 59.6399 25.959 59.9912C25.9543 60.2334 25.9511 60.4757 25.9493 60.7179C25.9481 60.956 25.9464 61.1942 25.9442 61.4323L25.9404 61.7732C25.9342 62.3458 25.9279 62.8463 25.7454 63.3962C25.3247 64.147 24.9891 64.5346 24.1707 64.819C23.3361 64.9397 22.6624 64.8531 21.9662 64.3448C21.3269 63.3737 21.2621 62.5626 21.2404 61.4107C21.2388 61.0048 21.2359 60.5988 21.2318 60.1929L21.222 59.6081C21.2188 59.0064 21.2927 58.7676 20.864 58.3371C20.3916 58.2976 20.3916 58.2976 19.9192 58.3371C19.5622 58.6956 19.5622 58.6956 19.5535 60.3053C19.5546 60.6342 19.5551 60.9629 19.5513 61.2918C19.5342 62.6902 19.5596 63.7763 20.2741 64.9988C21.0233 65.8902 21.9058 66.4456 23.0623 66.6341C24.3793 66.6969 25.3901 66.3516 26.3863 65.4835C27.6171 64.191 27.7021 62.769 27.6995 61.0498C27.6965 60.6758 27.694 60.302 27.6965 59.928C27.6985 59.681 27.6994 59.4341 27.699 59.1871L27.6977 58.8306C27.7098 57.4302 27.3538 56.3312 26.3838 55.3068C25.5039 54.5191 24.6869 54.1881 23.5131 54.1989L23.1712 54.2069L22.4866 54.2155L21.9662 54.2267C22.0237 50.5221 21.9711 46.9516 23.5507 43.5256C23.7937 43.0172 24.1707 41.8162 24.1707 41.8162H22.4386C20.6021 45.8714 20.1521 49.4161 20.2266 53.8415L20.2341 54.2267C19.7644 54.2201 19.2947 54.2149 18.8249 54.2112L18.2461 54.2069L17.6784 54.1989L17.1279 54.1958C16.2541 54.1871 15.5496 54.3028 14.8151 54.8004L14.467 55.1061L14.1164 55.4031C13.1498 56.5588 13.0546 57.744 13.0624 59.2161C13.0639 59.4333 13.0644 59.6506 13.0639 59.8678C13.0623 60.3251 13.0616 60.7823 13.0639 61.2395C13.0676 61.8292 13.0697 62.4187 13.0661 63.0084C13.0632 63.4712 13.0618 63.934 13.0628 64.3968C13.0635 64.6185 13.0642 64.8401 13.0646 65.0617C13.0575 66.1081 12.9747 67.132 13.4627 68.0848C13.8173 68.6021 13.8173 68.6021 13.8685 69.2389L13.8702 69.2983C13.9083 70.6055 13.9362 71.5641 14.8803 72.5657C16.0134 73.3988 17.1514 73.4675 18.519 73.4504C18.7504 73.4474 18.9818 73.4458 19.2133 73.4456C19.8464 73.4468 20.4793 73.4452 21.1124 73.4398C21.7839 73.434 22.4555 73.4316 23.1271 73.4306C24.3961 73.4288 25.6652 73.4237 26.9343 73.4158C28.3898 73.4068 29.8453 73.4012 31.3008 73.3971C34.4354 73.3886 37.5699 73.3747 40.7045 73.3562V73.1981C39.875 72.653 39.0197 72.1565 38.1586 71.6638L37.7127 71.4096C37.2824 71.1636 36.8521 70.9177 36.4216 70.6721L36.138 70.5105C37.9325 70.5017 39.7269 70.491 41.5213 70.4774L41.7336 70.4758C42.578 70.4692 43.4223 70.4626 44.2667 70.4582C45.1629 70.4541 46.0591 70.4494 46.9553 70.4419C47.2964 70.4388 47.6375 70.4359 47.9786 70.4333C48.4694 70.4318 48.9601 70.4304 49.4508 70.4256L49.9027 70.4207C50.2971 70.4214 50.6884 70.4169 51.0823 70.397C51.8085 70.2987 52.2563 69.9923 52.7308 69.4532C53.0578 68.784 53.0479 68.4026 52.9867 67.6648C52.4994 66.6863 52.0237 65.7484 51.0971 65.1352C50.6593 64.9207 50.2679 64.6943 49.8697 64.4113C49.2748 63.306 49.2748 63.306 49.3367 61.9928C49.3433 61.7626 49.3472 61.5322 49.3485 61.3019C49.3489 60.8154 49.3511 60.3292 49.3605 59.8428C49.3747 59.2185 49.3867 58.5947 49.3885 57.9703C49.3953 54.7551 49.439 51.5519 50.5678 48.4966C50.6639 48.251 50.7566 48.0041 50.8468 47.7563L50.9895 47.3613L51.0121 47.2995C51.3597 46.3525 51.7017 45.4209 51.8844 44.4248C52.1479 41.6793 51.5874 39.1903 49.8703 36.9929C48.3664 35.0924 48.1702 33.853 48.2628 31.4609C50.4493 31.5049 52.5636 31.5393 54.5613 30.5124C56.2083 29.5576 57.3586 28.2663 57.8681 26.4019C57.9281 25.6425 57.9108 25.1111 57.4707 24.4733L57.4346 24.4246C57.0001 23.8386 56.5879 23.2827 56.3426 22.5878C55.7821 20.8994 54.8345 19.3525 53.5575 18.1217C53.1514 17.7668 53.1514 17.7668 52.8293 17.3905L52.8292 17.3905C52.6198 16.8626 52.6623 16.6312 52.8286 16.0831C53.2409 15.0657 53.6042 14.2251 53.4591 13.1219C53.1441 12.6476 53.1441 12.6476 52.7898 12.3808C52.1166 12.0582 51.6072 12.1066 50.9064 12.3462L50.4082 12.5686L49.9026 12.7909L49.5225 12.9638C49.751 12.5049 49.7386 12.2093 49.6799 11.699Z" fill="#2C2ABC"/>
<path d="M5.98367 27.5086C7.82075 29.353 9.65784 31.1975 11.4949 33.0419C11.5776 33.1202 11.6604 33.1985 11.7456 33.2792C12.0926 33.6501 12.2576 34.0939 12.4692 34.5537C12.9004 35.4618 13.4012 36.2172 14.0617 36.9807C14.3293 37.3105 14.3293 37.3105 14.4837 37.6501C14.6893 38.025 14.8916 38.0847 15.2741 38.2591C15.4521 38.4192 15.6257 38.5844 15.7957 38.7531C17.643 40.4076 20.1116 41.2177 22.5174 41.5791C22.4168 42.2352 22.1948 42.7669 21.9171 43.3675C20.397 46.805 20.4007 50.5344 20.3129 54.2267C20.1963 54.2281 20.0797 54.2296 19.9596 54.2311C19.4244 54.2397 18.8895 54.2529 18.3545 54.2662C18.1711 54.2684 17.9877 54.2707 17.7987 54.273C16.4879 54.3101 15.4259 54.4605 14.4222 55.3556C14.3363 55.4656 14.2504 55.5757 14.162 55.6891C14.0725 55.8007 13.9829 55.9124 13.8907 56.0275C13.8276 56.1114 13.7645 56.1954 13.6994 56.2819C13.0579 56.0274 12.6342 55.5644 12.1641 55.0764C12.0844 54.9949 12.0046 54.9134 11.9224 54.8294C11.7267 54.6292 11.532 54.428 11.3375 54.2267C11.3017 54.4191 11.266 54.6114 11.2292 54.8096C11.0557 55.4943 10.7999 55.841 10.2352 56.2819C9.51379 56.6919 8.97985 56.8344 8.17587 56.6889C7.51605 56.4909 7.06982 56.1419 6.64305 55.61C6.28736 54.783 6.21792 54.176 6.47575 53.3275C6.83328 52.6933 7.15446 52.1437 7.87712 51.9104C7.9889 51.8851 8.10068 51.8597 8.21585 51.8336C8.41457 51.7886 8.61329 51.7436 8.81803 51.6971C8.65513 51.4844 8.65513 51.4844 8.48895 51.2673C5.63021 47.4791 4.02724 43.3834 3.93664 38.5752C3.93055 38.4407 3.92446 38.3062 3.91818 38.1677C3.81666 34.4756 4.70329 30.9354 5.98367 27.5086ZM8.5031 53.5943C8.22129 53.9779 8.22129 53.9779 8.03071 54.3848C8.23856 54.5935 8.44641 54.8021 8.66056 55.0171C8.92038 54.9128 9.18019 54.8085 9.44788 54.701C9.47416 54.3189 9.47416 54.3189 9.44788 53.9105C9.34396 53.8061 9.24003 53.7018 9.13295 53.5943C8.9251 53.5943 8.71725 53.5943 8.5031 53.5943Z" fill="#F0FEF8"/>
<path d="M4.09406 36.2038C5.09996 37.0404 6.02863 37.9509 6.95733 38.8717C7.08089 38.9942 7.08089 38.9942 7.20695 39.1191C7.64141 39.5502 8.07525 39.9819 8.50871 40.414C8.86651 40.7704 9.22562 41.1254 9.5859 41.4793C10.0232 41.9088 10.4581 42.3407 10.8915 42.7742C11.0563 42.9384 11.222 43.1018 11.3885 43.2643C11.6207 43.4913 11.8497 43.721 12.0783 43.9517C12.2092 44.0816 12.3402 44.2114 12.4751 44.3452C12.8197 44.8331 12.8317 45.1034 12.7546 45.6895C12.3086 46.189 11.826 46.2482 11.18 46.3219C11.18 46.6871 11.18 47.0523 11.18 47.4286C11.2672 47.4706 11.3545 47.5125 11.4444 47.5558C11.5585 47.6116 11.6726 47.6675 11.7901 47.725C11.9034 47.78 12.0167 47.8351 12.1333 47.8917C12.7662 48.2413 12.8586 48.6623 13.0695 49.3257C13.2353 49.5265 13.2353 49.5265 13.6108 49.5135C14.0407 49.5262 14.0407 49.5262 14.3292 49.1676C14.4072 48.9328 14.4072 48.9328 14.4867 48.6933C14.6442 48.219 14.6442 48.219 14.9591 47.9029C15.5547 47.7698 15.8025 47.7386 16.3763 47.9029C17.0403 48.3597 17.6004 48.8874 18.1651 49.4612C18.4313 49.729 18.706 49.9851 18.9827 50.2419C19.7989 51.0356 20.4018 51.6653 20.4405 52.8488C20.426 53.3129 20.3812 53.7676 20.3129 54.2267C20.1963 54.2281 20.0797 54.2296 19.9595 54.2311C19.4244 54.2397 18.8895 54.2529 18.3544 54.2662C18.171 54.2684 17.9876 54.2707 17.7987 54.273C16.4879 54.3101 15.4259 54.4605 14.4221 55.3556C14.3363 55.4656 14.2504 55.5757 14.1619 55.6891C14.0724 55.8007 13.9829 55.9124 13.8907 56.0275C13.8275 56.1114 13.7644 56.1954 13.6994 56.2819C13.0579 56.0274 12.6341 55.5644 12.1641 55.0764C12.0843 54.9949 12.0046 54.9134 11.9224 54.8294C11.7267 54.6292 11.5319 54.428 11.3374 54.2267C11.3017 54.4191 11.266 54.6114 11.2292 54.8096C11.0557 55.4943 10.7998 55.841 10.2352 56.2819C9.51375 56.6919 8.97982 56.8344 8.17583 56.6889C7.51601 56.4909 7.06978 56.1419 6.64301 55.61C6.28732 54.783 6.21788 54.176 6.47571 53.3275C6.83324 52.6933 7.15442 52.1437 7.87709 51.9104C7.98887 51.8851 8.10064 51.8597 8.21581 51.8336C8.41453 51.7886 8.61325 51.7435 8.81799 51.6971C8.6551 51.4844 8.6551 51.4844 8.48891 51.2673C5.63332 47.4832 4.0189 43.3803 3.9366 38.5752C3.9302 38.3295 3.9302 38.3295 3.92368 38.0787C3.9142 37.4178 3.92526 36.8435 4.09406 36.2038ZM8.50306 53.5943C8.22125 53.9779 8.22125 53.9779 8.03067 54.3848C8.23852 54.5935 8.44637 54.8021 8.66052 55.0171C8.92034 54.9128 9.18016 54.8085 9.44785 54.701C9.47412 54.3189 9.47412 54.3189 9.44785 53.9105C9.34392 53.8061 9.23999 53.7018 9.13292 53.5943C8.92506 53.5943 8.71721 53.5943 8.50306 53.5943Z" fill="#F7FEFB"/>
<path d="M17.2458 55.7821C17.3936 55.7806 17.5413 55.7791 17.6935 55.7775C17.9339 55.7765 17.9339 55.7765 18.1791 55.7755C18.4262 55.7742 18.4262 55.7742 18.6782 55.7728C19.0275 55.7713 19.3769 55.7703 19.7262 55.7696C20.2588 55.7681 20.7912 55.7632 21.3238 55.7582C21.6632 55.7572 22.0026 55.7564 22.3421 55.7557C22.5007 55.7538 22.6594 55.7518 22.8228 55.7498C23.8351 55.753 24.6705 55.8292 25.4686 56.5191C26.2756 57.5919 26.1788 58.6105 26.1855 59.9001C26.1873 60.1412 26.1905 60.3824 26.1952 60.6235C26.2435 63.1185 26.2435 63.1185 25.5092 64.1867C24.8272 64.8379 24.2723 65.039 23.3244 65.0198C22.7347 64.9447 22.3368 64.7277 21.8875 64.3448C21.1369 63.2095 21.1596 62.132 21.1494 60.7975C21.1428 60.3959 21.1357 59.9943 21.1279 59.5926C21.1252 59.3278 21.1252 59.3278 21.1225 59.0576C21.1457 58.6638 21.1457 58.6638 20.9427 58.4952C20.4703 58.4689 20.4703 58.4689 19.9979 58.4952C19.5828 58.912 19.7972 60.0485 19.794 60.6135C19.7913 60.9401 19.7844 61.2664 19.7774 61.5929C19.7649 62.6763 19.8089 63.558 20.322 64.527C20.5315 64.9395 20.5786 65.3402 20.6278 65.7973C20.7432 66.571 20.871 67.0753 21.4151 67.6648C21.7425 67.8953 22.0731 68.103 22.4214 68.3002C22.505 68.3514 22.5887 68.4025 22.6748 68.4552C22.6748 68.5074 22.6748 68.5596 22.6748 68.6133C21.798 68.633 20.9213 68.6473 20.0443 68.6568C19.7464 68.6607 19.4484 68.6661 19.1505 68.673C18.7208 68.6826 18.2914 68.6871 17.8617 68.6905C17.6636 68.6967 17.6636 68.6967 17.4615 68.7029C16.6597 68.7033 16.1225 68.5848 15.4983 68.0615C14.5968 67.1024 14.7304 65.873 14.7333 64.6356C14.7325 64.4359 14.7317 64.2362 14.7308 64.0304C14.7298 63.6093 14.7298 63.1883 14.7314 62.7672C14.7332 62.2294 14.73 61.6917 14.7254 61.1539C14.7218 60.638 14.7229 60.1221 14.7235 59.6062C14.7217 59.414 14.72 59.2218 14.7181 59.0238C14.7264 58.0127 14.7382 57.3585 15.4315 56.5981C16.0552 56.0464 16.4196 55.789 17.2458 55.7821Z" fill="#9DADFC"/>
<path d="M33.3824 37.4686C34.0015 37.6637 34.2069 38.0509 34.5 38.6092C34.5534 38.7154 34.6068 38.8216 34.6618 38.9309C34.7164 39.0347 34.771 39.1384 34.8273 39.2453C35.5526 40.6488 35.7657 41.8896 35.5869 43.4762C35.2132 44.6498 34.6162 45.687 33.5399 46.3219C32.7621 46.7157 31.9354 46.8296 31.0833 46.9568C29.5409 47.1887 28.3627 47.4135 27.3496 48.6933C26.6714 49.5104 25.9058 49.8794 24.8793 50.1162C23.9347 50.1992 22.9907 50.1637 22.045 50.1162C22.1153 47.4624 22.6716 45.1026 23.7771 42.6857C23.8207 42.5841 23.8642 42.4824 23.9091 42.3777C24.0545 42.0749 24.0545 42.0749 24.4069 41.579C24.9021 41.4296 24.9021 41.4296 25.4797 41.4012C28.6437 41.1344 31.0909 39.5476 33.3824 37.4686Z" fill="#FDFEFE"/>
<path d="M5.98365 27.5086C7.82073 29.353 9.65782 31.1975 11.4949 33.0419C11.5776 33.1202 11.6604 33.1985 11.7456 33.2792C12.0925 33.6501 12.2576 34.0939 12.4692 34.5537C12.9004 35.4618 13.4012 36.2172 14.0617 36.9807C14.3293 37.3105 14.3293 37.3105 14.4836 37.6501C14.6892 38.025 14.8916 38.0847 15.274 38.2591C15.4521 38.4192 15.6256 38.5844 15.7956 38.7531C17.643 40.4076 20.1116 41.2177 22.5174 41.5791C22.4171 42.2277 22.2012 42.7535 21.9269 43.3477C21.3383 44.6632 20.9835 46.0349 20.6278 47.4286C19.7238 46.6701 18.8768 45.8646 18.0342 45.0382C17.8889 44.8962 17.7436 44.7542 17.5939 44.6078C16.2641 43.3067 14.9415 41.9981 13.6209 40.6875C12.7344 39.808 11.8459 38.9309 10.9517 38.0593C10.1689 37.2964 9.39044 36.5293 8.61679 35.7571C8.20792 35.3492 7.79728 34.9436 7.3815 34.5428C6.91825 34.0961 6.46479 33.6405 6.01156 33.1836C5.87319 33.0529 5.73482 32.9223 5.59225 32.7877C5.22307 32.4065 4.94939 32.1006 4.72394 31.6191C4.75076 30.9298 4.94219 30.3581 5.19633 29.7219C5.26967 29.4989 5.34253 29.2758 5.41469 29.0525C5.51608 28.7774 5.51608 28.7774 5.61952 28.4967C5.68833 28.3084 5.75714 28.1201 5.82803 27.926C5.87939 27.7883 5.93074 27.6505 5.98365 27.5086Z" fill="#EBFEF6"/>
<path d="M40.3108 40.7392C40.5446 40.7636 40.5446 40.7636 40.7832 40.7886C41.1698 41.3708 41.1363 41.6528 41.1339 42.3471C41.1339 42.4566 41.134 42.5662 41.134 42.6791C41.1338 43.0409 41.1314 43.4027 41.1289 43.7646C41.1283 44.0156 41.1279 44.2666 41.1275 44.5175C41.1263 45.178 41.1232 45.8384 41.1198 46.4988C41.1165 47.1728 41.1151 47.8467 41.1135 48.5207C41.1101 49.843 41.1048 51.1653 41.0981 52.4876C41.1941 52.5325 41.2902 52.5773 41.3891 52.6235C42.8509 53.4013 43.7642 55.1414 44.2665 56.6561C44.7639 58.7203 44.3291 60.6131 43.2731 62.4081C42.7159 63.246 42.0393 63.8802 41.2556 64.5029C41.3451 64.5644 41.4346 64.6259 41.5269 64.6894C42.4654 65.3721 43.2793 66.1209 43.775 67.1905C43.853 67.8948 43.853 67.8948 43.9325 68.6133C46.3748 68.6133 48.817 68.6133 51.3333 68.6133C51.3333 68.6655 51.3333 68.7177 51.3333 68.7714C43.4869 68.7714 35.6404 68.7714 27.5562 68.7714C27.5562 68.7193 27.5562 68.6671 27.5562 68.6133C32.4408 68.6133 37.3253 68.6133 42.3578 68.6133C41.7423 66.9572 41.7423 66.9572 40.421 66.0667C39.9306 65.904 39.5271 65.8853 39.0111 65.8825C38.8247 65.8792 38.6382 65.876 38.4462 65.8726C38.055 65.8685 37.6638 65.8656 37.2726 65.864C36.9932 65.8585 36.9932 65.8585 36.7082 65.8528C36.5384 65.8515 36.3686 65.8502 36.1936 65.8489C35.6413 65.749 35.4499 65.5798 35.1145 65.1352C35.1243 64.7202 35.1243 64.7202 35.272 64.3448C35.7929 63.9961 36.0724 64.0027 36.6819 64.001C38.5328 63.9905 40.0773 63.5562 41.4229 62.1907C42.3807 60.924 42.8063 59.4536 42.7398 57.8752C42.5261 56.3241 41.7297 55.0198 40.533 54.0326C39.2453 53.0822 38.0118 52.8476 36.4431 52.8668C36.1706 52.8649 36.1706 52.8649 35.8926 52.863C35.3182 52.8593 34.7441 52.8608 34.1697 52.8631C33.5909 52.8637 33.0121 52.8632 32.4333 52.8598C32.0746 52.8579 31.7159 52.8584 31.3572 52.8614C31.1957 52.8608 31.0342 52.8602 30.8679 52.8596C30.7259 52.8602 30.5839 52.8609 30.4376 52.8615C30.0756 52.8038 30.0756 52.8038 29.7881 52.5941C29.6032 52.3295 29.6032 52.3295 29.6328 51.8355C29.675 51.6855 29.7172 51.5355 29.7607 51.381C30.1535 51.1838 30.4205 51.2017 30.86 51.1999C31.0235 51.1989 31.187 51.1979 31.3555 51.1968C31.6217 51.1966 31.6217 51.1966 31.8932 51.1963C32.0754 51.1958 32.2576 51.1952 32.4453 51.1947C32.8317 51.1939 33.2181 51.1935 33.6045 51.1936C34.1941 51.1932 34.7836 51.1903 35.3731 51.1873C35.7485 51.1869 36.1238 51.1866 36.4991 51.1864C36.6749 51.1853 36.8508 51.1841 37.032 51.183C37.9251 51.1856 38.6809 51.2344 39.5235 51.539C39.5228 51.409 39.5221 51.279 39.5214 51.145C39.5151 49.9214 39.5103 48.6977 39.5072 47.474C39.5055 46.8449 39.5033 46.2158 39.4997 45.5866C39.4963 44.9798 39.4944 44.373 39.4936 43.7661C39.493 43.5343 39.4919 43.3024 39.4902 43.0706C39.4879 42.7465 39.4876 42.4225 39.4877 42.0985C39.487 41.9138 39.4863 41.7292 39.4856 41.5389C39.5405 40.9094 39.6915 40.8039 40.3108 40.7392Z" fill="#6682FB"/>
<path d="M4.409 42.0533C5.15999 42.679 5.85448 43.3357 6.53415 44.0388C6.83593 44.3342 7.13826 44.6057 7.45898 44.8787C8.40687 45.7092 9.28422 46.6123 10.1712 47.507C10.36 47.6969 10.5488 47.8867 10.7377 48.0765C11.2309 48.5723 11.7237 49.0685 12.2163 49.5649C12.7206 50.0729 13.2254 50.5804 13.7301 51.0879C14.7176 52.081 15.7046 53.0746 16.6912 54.0686C16.2918 54.3359 15.9901 54.4762 15.5496 54.6417C14.7165 55.0003 14.2373 55.5665 13.6994 56.2819C13.0579 56.0273 12.6341 55.5644 12.1641 55.0764C12.0843 54.9949 12.0046 54.9134 11.9224 54.8294C11.7267 54.6292 11.5319 54.428 11.3374 54.2267C11.3017 54.419 11.266 54.6114 11.2292 54.8096C11.0557 55.4943 10.7998 55.8409 10.2352 56.2819C9.51376 56.6919 8.97982 56.8344 8.17584 56.6889C7.51602 56.4909 7.06978 56.1419 6.64302 55.61C6.28733 54.783 6.21789 54.176 6.47571 53.3275C6.83324 52.6933 7.15443 52.1437 7.87709 51.9104C7.98887 51.8851 8.10065 51.8597 8.21582 51.8336C8.41454 51.7886 8.61325 51.7435 8.81799 51.6971C8.6551 51.4844 8.6551 51.4844 8.48892 51.2673C6.51811 48.6557 4.409 45.4528 4.409 42.0533ZM8.50307 53.5943C8.22125 53.9779 8.22125 53.9779 8.03067 54.3848C8.23853 54.5934 8.44638 54.8021 8.66053 55.0171C8.92035 54.9128 9.18016 54.8085 9.44785 54.7009C9.47413 54.3189 9.47413 54.3189 9.44785 53.9105C9.34392 53.8061 9.24 53.7018 9.13292 53.5943C8.92507 53.5943 8.71722 53.5943 8.50307 53.5943Z" fill="#F9FEFC"/>
<path d="M42.6728 29.4057C43.043 29.5891 43.4027 29.7789 43.7621 29.9838C43.932 30.0799 44.1019 30.1761 44.2769 30.2752C44.4448 30.3714 44.6127 30.4676 44.7856 30.5667C45.4372 30.8692 46.064 31.0164 46.7669 31.1448C46.7644 31.2323 46.7619 31.3198 46.7594 31.4099C46.6914 34.1778 46.9754 35.8229 48.745 38.0021C50.1044 39.7354 50.5768 41.7657 50.4309 43.9445C50.308 44.8791 49.9459 45.7668 49.6012 46.6381C48.5457 46.4892 47.7773 46.0868 47.1058 45.2251C46.5701 44.2625 46.3904 43.1027 46.1431 42.0348C45.6992 40.1317 45.1458 38.8096 43.7984 37.3691C42.5257 35.959 42.1181 34.4414 42.1413 32.5676C42.1395 32.4201 42.1377 32.2725 42.1358 32.1205C42.1399 31.1342 42.3029 30.3193 42.6728 29.4057Z" fill="#FCFDFE"/>
<path d="M51.6482 73.1981C51.8729 73.4274 51.8729 73.4274 52.1352 73.7463C52.7516 74.4737 53.4138 75.1409 54.0926 75.8091C54.3467 76.0615 54.6007 76.3138 54.8547 76.5663C55.2513 76.9595 55.6482 77.3524 56.0459 77.7444C56.4325 78.1259 56.8176 78.5088 57.2025 78.892C57.3821 79.0679 57.3821 79.0679 57.5654 79.2473C57.6753 79.3572 57.7852 79.467 57.8984 79.5801C57.9955 79.676 58.0925 79.7719 58.1925 79.8707C58.4382 80.178 58.5132 80.4014 58.5767 80.7867C56.2933 81.2958 53.7669 81.1448 51.6482 80.1543C51.4643 80.0697 51.2804 79.9851 51.091 79.898C49.7536 79.2457 48.5568 78.3995 47.3492 77.5346C45.2936 76.0639 43.1473 74.7431 40.9407 73.5143C40.9407 73.4621 40.9407 73.4099 40.9407 73.3562C42.2903 73.3356 43.6399 73.3149 44.9895 73.2944C45.6161 73.2848 46.2427 73.2752 46.8693 73.2656C47.4738 73.2564 48.0782 73.2472 48.6826 73.238C48.9135 73.2344 49.1444 73.2309 49.3753 73.2274C49.6981 73.2224 50.0208 73.2175 50.3435 73.2126C50.5275 73.2098 50.7114 73.207 50.9009 73.2041C51.15 73.2006 51.3991 73.1981 51.6482 73.1981Z" fill="#EDFEF7"/>
<path d="M35.9019 70.3524C41.0462 70.3524 46.1906 70.3524 51.4908 70.3524C52.2624 71.9017 52.2624 71.9017 52.1207 72.7238C51.5409 73.3148 51.1331 73.4376 50.318 73.4531C50.1155 73.4581 49.9129 73.4632 49.7043 73.4684C49.4838 73.4704 49.2633 73.4721 49.0427 73.4735C48.8137 73.4764 48.5847 73.4792 48.3557 73.4822C47.875 73.4874 47.3943 73.4898 46.9135 73.4907C46.4253 73.4921 45.9375 73.4986 45.4494 73.5102C40.3865 73.6282 40.3865 73.6282 38.373 71.9803C37.8948 71.6125 37.3639 71.3342 36.8368 71.044C36.6563 70.9409 36.4759 70.8378 36.29 70.7316C36.1619 70.6586 36.0338 70.5856 35.9019 70.5105C35.9019 70.4583 35.9019 70.4061 35.9019 70.3524Z" fill="#A4B0DF"/>
<path d="M53.3213 52.4185C54.0682 52.5157 54.4341 52.9162 54.955 53.4362C55.1596 53.2014 55.1596 53.2014 55.3684 52.9619C55.7506 52.5763 55.8539 52.4947 56.4116 52.4086C56.8446 52.4876 56.8446 52.4876 57.1595 52.8038C57.2382 53.2287 57.2382 53.2287 57.1595 53.7524C56.8808 54.1583 56.5605 54.5098 56.2147 54.859C56.3706 54.983 56.5265 55.1069 56.6871 55.2345C57.1171 55.6693 57.2441 55.9762 57.2776 56.5882C57.2305 57.4566 56.8422 57.929 56.2147 58.4952C56.3187 58.5996 56.4226 58.7039 56.5297 58.8114C56.6336 58.7071 56.7375 58.6027 56.8446 58.4952C57.2926 58.4636 57.725 58.451 58.1732 58.4532C58.3048 58.4529 58.4364 58.4526 58.572 58.4523C58.8505 58.4521 59.129 58.4527 59.4075 58.454C59.8347 58.4557 60.2618 58.454 60.6889 58.452C60.9592 58.4522 61.2294 58.4526 61.4996 58.4532C61.6279 58.4526 61.7562 58.452 61.8883 58.4513C62.792 58.4589 62.792 58.4589 63.1431 58.8114C63.1825 59.2857 63.1825 59.2857 63.1431 59.76C62.8282 60.0762 62.8282 60.0762 62.2721 60.1121C62.0339 60.112 61.7956 60.1102 61.5574 60.1071C61.4321 60.1066 61.3067 60.1062 61.1775 60.1057C60.7764 60.1039 60.3753 60.1 59.9742 60.096C59.7025 60.0944 59.4308 60.0929 59.1592 60.0916C58.4926 60.0881 57.8261 60.0827 57.1595 60.0762C57.1075 60.2849 57.0556 60.4936 57.002 60.7086C56.5789 60.837 56.5789 60.837 56.0573 60.8667C55.9533 60.7395 55.8494 60.6123 55.7423 60.4813C55.0515 59.8889 54.4442 60.0369 53.5661 60.0947C53.0654 60.0762 53.0654 60.0762 52.761 59.8699C52.593 59.6019 52.593 59.6019 52.6029 59.1276C52.7683 58.5962 52.9097 58.4534 53.3804 58.179C53.1855 58.0274 53.1855 58.0274 52.9867 57.8727C52.5279 57.3084 52.4684 57.0364 52.5026 56.3282C52.6603 55.6961 53.0713 55.2926 53.5378 54.859C53.35 54.4477 53.2274 54.2306 52.8785 53.9302C52.593 53.5943 52.593 53.5943 52.6226 53.0904C52.7903 52.5073 52.7903 52.5073 53.3213 52.4185Z" fill="#AFCEE1"/>
<path d="M33.3824 37.4686C34.0409 37.75 34.2002 38.0765 34.4846 38.7333C34.3807 38.7333 34.2768 38.7333 34.1697 38.7333C34.132 38.845 34.0942 38.9567 34.0553 39.0718C32.9565 41.5489 30.2669 43.1282 27.8577 44.0802C26.9867 44.3955 26.1537 44.5275 25.2336 44.6026C24.9752 44.6258 24.7169 44.6492 24.4586 44.673C24.3402 44.6839 24.2217 44.6947 24.0997 44.7059C23.7238 44.7467 23.358 44.8134 22.9897 44.899C23.1338 44.4169 23.2921 43.9493 23.4621 43.4762C23.5145 43.3093 23.5669 43.1424 23.6208 42.9704C23.8307 42.4211 24.0193 42.0222 24.4069 41.579C25.0842 41.3598 25.743 41.3367 26.4501 41.2952C29.1532 41.0209 31.4429 39.2282 33.3824 37.4686Z" fill="#CFDBFE"/>
<path d="M47.7116 61.0248C47.7157 61.2155 47.7198 61.4063 47.7239 61.6028C47.7328 61.8581 47.7418 62.1133 47.751 62.3686C47.7532 62.4937 47.7555 62.6188 47.7578 62.7478C47.7915 63.5752 47.9531 64.161 48.3653 64.8805C48.499 65.1352 48.499 65.1352 48.499 65.4514C48.5901 65.4963 48.6812 65.5411 48.7751 65.5873C49.9396 66.181 51.0047 66.8524 51.4908 68.1391C51.4908 68.2956 51.4908 68.4521 51.4908 68.6133C48.9965 68.6133 46.5023 68.6133 43.9325 68.6133C43.9325 67.5499 43.9325 67.5499 44.4639 66.9336C45.161 66.1128 45.376 65.6548 45.3989 64.5621C45.4767 63.268 45.8033 62.2049 46.7865 61.3212C47.2392 61.0248 47.2392 61.0248 47.7116 61.0248Z" fill="#FDFDFE"/>
<path d="M11.8098 33.5162C12.1781 33.886 12.3199 34.2271 12.5381 34.7019C12.9528 35.5552 13.4409 36.2513 14.0561 36.9696C14.3292 37.3105 14.3292 37.3105 14.4842 37.6514C14.6894 38.0253 14.8925 38.0851 15.274 38.259C15.452 38.4192 15.6256 38.5844 15.7956 38.7531C17.643 40.4076 20.1115 41.2177 22.5174 41.579C22.4159 42.2641 22.1726 42.8227 21.8777 43.4465C21.7914 43.6302 21.7051 43.8138 21.6163 44.003C21.5167 44.2118 21.5167 44.2118 21.4151 44.4248C18.3992 43.8696 15.7891 42.1511 13.9749 39.672C12.8663 37.9518 11.6745 35.6222 11.8098 33.5162Z" fill="#A4B1DF"/>
<path d="M56.6871 28.6152C56.7911 28.6674 56.895 28.7196 57.0021 28.7733C57.23 29.6886 57.1644 30.2646 56.7456 31.1071C55.9972 32.3337 55.0101 33.2507 53.6756 33.783C53.5128 33.8488 53.35 33.9146 53.1823 33.9824C51.6714 34.5637 49.9449 34.5496 48.3415 34.4648C48.1841 34.3067 48.1841 34.3067 48.1631 33.9096C48.1636 33.7439 48.164 33.5782 48.1644 33.4075C48.164 33.2438 48.1636 33.0802 48.1631 32.9116C48.1838 32.4157 48.2499 31.9482 48.3415 31.4609C48.5242 31.4532 48.7069 31.4455 48.8951 31.4375C51.8114 31.303 54.4109 31.0221 56.5297 28.7733C56.5816 28.7212 56.6336 28.669 56.6871 28.6152Z" fill="#A6DDDB"/>
<path d="M21.2577 59.6019C22.8166 59.6019 24.3755 59.6019 25.9816 59.6019C25.9946 60.2084 26.0076 60.8149 26.021 61.4398C26.0267 61.6292 26.0324 61.8187 26.0383 62.0139C26.0486 63.001 26.0214 63.6003 25.3517 64.3448C24.7256 64.8972 24.1611 65.0367 23.3244 65.0198C22.7356 64.9448 22.3351 64.729 21.8875 64.3448C21.1777 63.3874 21.1795 62.4123 21.2183 61.2619C21.2313 60.7141 21.2443 60.1663 21.2577 59.6019Z" fill="#FCFCFE"/>
<path d="M59.3898 69.7064C60.0179 70.1223 60.3784 70.5766 60.6237 71.301C60.7122 72.1303 60.6055 72.657 60.1513 73.3562C59.5645 73.9534 59.061 74.28 58.2126 74.3443C57.3856 74.288 56.9025 74.0588 56.3328 73.455C55.8357 72.7063 55.6669 72.2158 55.8149 71.2997C55.9934 70.6376 56.3576 70.1933 56.8544 69.7398C57.6676 69.4271 58.5747 69.3607 59.3898 69.7064Z" fill="#05D891"/>
<path d="M33.5399 9.48572C34.3835 9.78936 34.8718 10.263 35.272 11.0667C35.3308 11.9527 35.3049 12.5191 34.7996 13.28C34.2117 13.8768 33.7068 14.1979 32.8608 14.278C31.9911 14.204 31.5451 13.8295 30.9713 13.1911C30.5118 12.5247 30.4419 11.8583 30.5481 11.0667C31.1949 9.76784 32.1415 9.27902 33.5399 9.48572Z" fill="#04D791"/>
<path d="M10.1368 52.1121C10.7197 52.6417 11.1228 53.0432 11.2403 53.8506C11.2698 54.579 11.2327 55.0655 10.9143 55.7286C10.2584 56.4404 9.6677 56.6994 8.71469 56.7759C8.07316 56.7416 7.59553 56.507 7.08592 56.1238C6.49495 55.4544 6.25583 54.7967 6.2986 53.9105C6.54973 53.084 6.904 52.5717 7.55831 52.0133C8.43734 51.7191 9.2985 51.7069 10.1368 52.1121ZM8.5031 53.5943C8.22128 53.9779 8.22128 53.9779 8.0307 54.3848C8.23856 54.5934 8.44641 54.8021 8.66056 55.0171C8.92038 54.9128 9.18019 54.8084 9.44788 54.7009C9.47416 54.3189 9.47416 54.3189 9.44788 53.9105C9.34396 53.8061 9.24003 53.7018 9.13295 53.5943C8.9251 53.5943 8.71725 53.5943 8.5031 53.5943Z" fill="#FF5AA7"/>
<path d="M53.9924 61.4761C54.1868 61.4751 54.3812 61.4741 54.5816 61.473C54.7946 61.4728 55.0077 61.4726 55.2208 61.4725C55.4384 61.472 55.6561 61.4714 55.8738 61.4709C56.3302 61.4699 56.7866 61.4697 57.243 61.4697C57.8287 61.4698 58.4143 61.4676 59 61.4649C59.4495 61.4631 59.8991 61.4628 60.3486 61.4629C60.5646 61.4627 60.7806 61.462 60.9965 61.4608C61.2981 61.4592 61.5997 61.4599 61.9013 61.4606C62.0731 61.4604 62.2449 61.4602 62.4219 61.46C62.8282 61.499 62.8282 61.499 63.1432 61.8152C63.1825 62.2895 63.1825 62.2895 63.1432 62.7638C62.7182 63.1905 62.4982 63.1209 61.9038 63.1234C61.7099 63.1249 61.516 63.1264 61.3162 63.128C61.1036 63.1279 60.8911 63.1278 60.6785 63.1275C60.4612 63.1282 60.2439 63.1288 60.0266 63.1296C59.5708 63.1308 59.1151 63.1307 58.6593 63.1299C58.0751 63.129 57.4909 63.1317 56.9067 63.1353C56.4578 63.1377 56.0089 63.1378 55.56 63.1373C55.3446 63.1374 55.1292 63.1382 54.9138 63.1398C54.6126 63.1418 54.3115 63.1404 54.0103 63.1389C53.7531 63.139 53.7531 63.139 53.4908 63.1392C53.0655 63.08 53.0655 63.08 52.7684 62.8701C52.5931 62.6057 52.5931 62.6057 52.6226 62.1117C52.6648 61.9617 52.707 61.8117 52.7505 61.6571C53.1777 61.4427 53.5142 61.4778 53.9924 61.4761Z" fill="#2626BC"/>
<path d="M53.9755 65.2524C54.2616 65.2509 54.2616 65.2509 54.5535 65.2494C54.864 65.2504 54.864 65.2504 55.1808 65.2513C55.3945 65.2511 55.6083 65.2508 55.8221 65.2504C56.2704 65.25 56.7188 65.2506 57.1671 65.2521C57.7418 65.2539 58.3165 65.2529 58.8912 65.251C59.3328 65.2498 59.7743 65.2502 60.2159 65.251C60.5309 65.2513 60.8459 65.2504 61.1609 65.2494C61.3521 65.2504 61.5434 65.2514 61.7404 65.2524C61.9934 65.2528 61.9934 65.2528 62.2514 65.2532C62.6708 65.2933 62.6708 65.2933 63.1432 65.6095C63.2022 66.0838 63.2022 66.0838 63.1432 66.5581C62.5965 66.924 62.3854 66.9142 61.7404 66.9152C61.5492 66.9162 61.3579 66.9172 61.1609 66.9182C60.9542 66.9176 60.7475 66.9169 60.5346 66.9163C60.3206 66.9165 60.1067 66.9168 59.8928 66.9172C59.4447 66.9177 58.9967 66.917 58.5486 66.9155C57.9737 66.9137 57.3989 66.9147 56.824 66.9166C56.3824 66.9178 55.9408 66.9174 55.4992 66.9166C55.184 66.9163 54.8687 66.9172 54.5535 66.9182C54.3628 66.9172 54.172 66.9162 53.9755 66.9152C53.8069 66.9149 53.6384 66.9147 53.4648 66.9144C53.0655 66.8743 53.0655 66.8743 52.7505 66.5581C52.7112 66.0838 52.7112 66.0838 52.7505 65.6095C53.1733 65.185 53.3845 65.2533 53.9755 65.2524Z" fill="#AFCBE1"/>
<path d="M53.3213 52.4185C54.0682 52.5157 54.434 52.9162 54.955 53.4362C55.1596 53.2014 55.1596 53.2014 55.3683 52.9619C55.7506 52.5763 55.8539 52.4947 56.4115 52.4086C56.8446 52.4876 56.8446 52.4876 57.1595 52.8038C57.2382 53.2287 57.2382 53.2287 57.1595 53.7524C56.8807 54.1583 56.5605 54.5098 56.2147 54.859C56.3706 54.996 56.5265 55.1329 56.6871 55.274C57.0685 55.656 57.1525 55.767 57.2481 56.3214C57.1595 56.7562 57.1595 56.7562 56.6871 57.0724C56.0916 57.0566 55.9045 56.9186 55.4569 56.5092C55.3432 56.382 55.2296 56.2548 55.1124 56.1238C54.7057 56.3053 54.4343 56.4835 54.0988 56.7858C53.6953 57.0724 53.6953 57.0724 53.2721 57.0526C52.9079 56.9143 52.9079 56.9143 52.593 56.5981C52.6076 55.9397 52.7124 55.6924 53.154 55.195C53.2806 55.0841 53.4073 54.9733 53.5378 54.859C53.362 54.4473 53.2224 54.2262 52.8784 53.9302C52.593 53.5943 52.593 53.5943 52.6225 53.0904C52.7903 52.5073 52.7903 52.5073 53.3213 52.4185Z" fill="#292ABD"/>
<path d="M14.1718 44.4248C14.2008 44.5201 14.2298 44.6155 14.2597 44.7138C14.5485 45.5167 14.5485 45.5167 15.159 46.0829C15.5088 46.235 15.8543 46.3682 16.2188 46.48C16.2582 46.9246 16.2582 46.9246 16.2188 47.4286C15.892 47.7688 15.6363 47.8889 15.1854 48.0214C14.6179 48.3136 14.5467 48.7434 14.3292 49.3257C14.0143 49.6419 14.0143 49.6419 13.6305 49.6913C13.227 49.6419 13.227 49.6419 12.9612 49.4641C12.7546 49.1676 12.7546 49.1676 12.6463 48.7032C12.3768 48.0719 12.0686 47.969 11.4598 47.7071C11.1799 47.5867 11.1799 47.5867 11.0225 47.4286C11.0028 46.9049 11.0028 46.9049 11.1799 46.3219C11.5322 46.1268 11.8895 46.0018 12.2674 45.8643C12.6664 45.699 12.6664 45.699 12.8235 45.1066C12.8527 44.9337 12.8819 44.7609 12.912 44.5829C13.3386 44.3687 13.7008 44.4145 14.1718 44.4248Z" fill="#6784FD"/>
<path d="M56.5198 33.951C57.002 34.1486 57.002 34.1486 57.1589 34.4611C57.2046 34.5862 57.2502 34.7113 57.2973 34.8402C57.4913 35.3989 57.4913 35.3989 57.945 35.7376C58.1703 35.803 58.3962 35.8664 58.6228 35.9271C58.7115 35.9663 58.8002 36.0054 58.8916 36.0457C59.0491 36.5496 59.0491 36.5496 59.0491 36.9943C58.6693 37.3169 58.43 37.4662 57.937 37.5773C57.4638 37.7331 57.4638 37.7331 57.3145 38.08C57.2323 38.3072 57.1564 38.5369 57.0875 38.7685C57.002 39.0495 57.002 39.0495 56.8446 39.2076C56.416 39.2529 56.1561 39.2738 55.7915 39.0298C55.5849 38.7333 55.5849 38.7333 55.4668 38.2591C55.3067 37.7279 55.3067 37.7279 54.7188 37.5081C54.5369 37.4429 54.3551 37.3777 54.1677 37.3105C53.8528 36.9943 53.8528 36.9943 53.7937 36.6089C53.8528 36.2038 53.8528 36.2038 54.1086 35.9271C54.5482 35.6949 54.9362 35.6275 55.4274 35.5714C55.4436 35.3986 55.4599 35.2258 55.4766 35.0477C55.5849 34.4648 55.5849 34.4648 55.7718 34.1486C56.0572 33.9905 56.0572 33.9905 56.5198 33.951Z" fill="#FD5FA8"/>
<path d="M26.7689 64.9771C27.0643 65.5703 26.7839 66.2603 26.6115 66.8743C26.1938 67.729 25.5779 68.2295 24.7219 68.6133C23.8606 68.8065 23.0121 68.7916 22.1348 68.7869C21.9009 68.7865 21.9009 68.7865 21.6623 68.7862C21.1665 68.7853 20.6708 68.7833 20.1751 68.7813C19.838 68.7805 19.501 68.7798 19.1639 68.7791C18.3397 68.7774 17.5154 68.7748 16.6912 68.7714C16.6912 68.7193 16.6912 68.6671 16.6912 68.6133C18.5619 68.5612 20.4326 68.509 22.3599 68.4552C22.0482 68.2466 21.7364 68.0379 21.4151 67.8229C20.6367 66.9979 20.4518 66.2493 20.4704 65.1352C20.6497 65.2523 20.6497 65.2523 20.8327 65.3718C20.9892 65.473 21.1457 65.5743 21.3069 65.6787C21.4622 65.7796 21.6175 65.8804 21.7774 65.9844C22.6624 66.5205 23.5569 66.5106 24.5644 66.4C25.4218 66.1072 26.1894 65.6912 26.7689 64.9771Z" fill="#7E93F9"/>
<path d="M35.9019 70.3524C36.6889 70.321 37.4757 70.2981 38.2632 70.2829C38.5307 70.2766 38.7982 70.268 39.0655 70.257C41.2866 70.168 41.2866 70.168 41.9706 70.6121C42.2474 70.9326 42.4588 71.2523 42.6728 71.6171C42.9289 71.8804 43.1876 72.1412 43.4503 72.3977C43.6664 72.6089 43.8806 72.8221 44.09 73.04C44.09 73.0922 44.09 73.1443 44.09 73.1981C41.7644 73.5509 40.3373 73.3675 38.4202 71.9928C37.9126 71.6409 37.3757 71.3445 36.8368 71.044C36.6563 70.9409 36.4759 70.8378 36.29 70.7316C36.1619 70.6586 36.0338 70.5856 35.9019 70.5105C35.9019 70.4583 35.9019 70.4061 35.9019 70.3524Z" fill="#939CDA"/>
<path d="M42.0823 26.2142C42.8471 26.4573 42.9789 26.7863 43.3783 27.453C44.2513 28.8094 45.7447 29.3388 47.2393 29.7219C47.1354 29.8784 47.0314 30.0349 46.9243 30.1962C46.8629 30.5108 46.8091 30.827 46.7669 31.1448C45.2449 31.1189 43.9874 30.4147 42.7712 29.5243C42.097 28.8152 41.3226 27.9211 41.2052 26.9207C41.2904 26.3114 41.4896 26.2485 42.0823 26.2142Z" fill="#6683FC"/>
<path d="M57.7845 58.4513C57.9769 58.4523 57.9769 58.4523 58.1732 58.4532C58.3048 58.4529 58.4364 58.4526 58.572 58.4523C58.8505 58.4521 59.129 58.4527 59.4075 58.454C59.8347 58.4557 60.2618 58.454 60.6889 58.452C60.9591 58.4522 61.2294 58.4526 61.4996 58.4532C61.6279 58.4526 61.7562 58.452 61.8883 58.4513C62.792 58.4589 62.792 58.4589 63.1431 58.8114C63.1825 59.2857 63.1825 59.2857 63.1431 59.76C62.7333 60.1715 62.4467 60.1154 61.8883 60.1201C61.76 60.1195 61.6318 60.1188 61.4996 60.1182C61.368 60.1185 61.2364 60.1188 61.1008 60.1191C60.8223 60.1193 60.5438 60.1187 60.2653 60.1174C59.8381 60.1157 59.411 60.1174 58.9839 60.1194C58.7136 60.1192 58.4434 60.1188 58.1732 60.1182C57.9808 60.1191 57.9808 60.1191 57.7845 60.1201C56.8808 60.1125 56.8808 60.1125 56.5296 59.76C56.4903 59.2857 56.4903 59.2857 56.5296 58.8114C56.9395 58.3999 57.2261 58.456 57.7845 58.4513Z" fill="#2728BC"/>
<path d="M59.5264 55.4494C59.7158 55.449 59.9052 55.4486 60.1003 55.4482C60.299 55.4494 60.4977 55.4506 60.7025 55.4519C60.9012 55.4507 61.0999 55.4495 61.3046 55.4482C61.494 55.4486 61.6834 55.449 61.8785 55.4494C62.053 55.4498 62.2275 55.4501 62.4072 55.4505C62.8282 55.4914 62.8282 55.4914 63.1432 55.8076C63.1825 56.2819 63.1825 56.2819 63.1432 56.7562C62.639 57.2624 62.0557 57.1191 61.3683 57.1233C61.1778 57.1228 60.9873 57.1223 60.791 57.1218C60.5062 57.1256 60.5062 57.1256 60.2156 57.1295C60.0339 57.1296 59.8521 57.1297 59.6648 57.1298C59.4978 57.1303 59.3307 57.1308 59.1586 57.1312C58.7342 57.0724 58.7342 57.0724 58.4429 56.857C58.1876 56.4921 58.2062 56.2429 58.2618 55.8076C58.6904 55.3772 58.9275 55.4507 59.5264 55.4494Z" fill="#2829BC"/>
<path d="M35.9019 70.3524C38.2791 69.9515 38.2791 69.9515 39.2981 70.6162C40.1429 71.3406 40.8739 72.1731 41.5706 73.04C41.2834 73.21 41.2834 73.21 40.9407 73.3562C40.4966 73.166 40.4966 73.166 39.9762 72.8424C39.782 72.7244 39.5877 72.6066 39.3931 72.4891C39.2887 72.4252 39.1843 72.3614 39.0767 72.2955C38.4536 71.922 37.8167 71.5735 37.1813 71.2219C36.9356 71.0853 36.69 70.9486 36.4444 70.8118C36.2653 70.7124 36.0863 70.6129 35.9019 70.5105C35.9019 70.4583 35.9019 70.4061 35.9019 70.3524Z" fill="#898ED7"/>
<path d="M62.9857 62.7638C63.0377 62.7638 63.0896 62.7638 63.1432 62.7638C63.1727 63.1393 63.1727 63.1393 63.1432 63.5543C62.5528 63.9494 62.0851 63.9188 61.4012 63.918C61.2772 63.9187 61.1531 63.9194 61.0254 63.9201C60.7633 63.921 60.5012 63.9211 60.2391 63.9204C59.8379 63.9199 59.4368 63.9236 59.0356 63.9276C58.7809 63.928 58.5263 63.9281 58.2716 63.9279C58.1515 63.9294 58.0315 63.9308 57.9077 63.9323C57.08 63.925 57.08 63.925 56.6865 63.6495C56.5297 63.3962 56.5297 63.3962 56.5297 63.08C56.7196 63.076 56.9096 63.0721 57.1054 63.068C57.8076 63.0532 58.5098 63.0373 59.2121 63.0211C59.5165 63.0143 59.8209 63.0077 60.1253 63.0014C60.5619 62.9923 60.9985 62.9822 61.435 62.9719C61.572 62.9693 61.709 62.9666 61.8501 62.9639C62.4678 63.0088 62.4678 63.0088 62.9857 62.7638Z" fill="#B0D0E1"/>
<path d="M59.0441 52.4456C59.2276 52.4464 59.4111 52.4472 59.6002 52.4481C59.7837 52.4473 59.9672 52.4465 60.1562 52.4456C60.6237 52.4876 60.6237 52.4876 60.9386 52.8038C60.9945 53.2413 61.0141 53.4888 60.7535 53.853C60.3598 54.1484 60.0872 54.1318 59.6002 54.1278C59.4492 54.1291 59.2981 54.1303 59.1426 54.1316C58.7341 54.0686 58.7341 54.0686 58.4469 53.853C58.1863 53.4888 58.2059 53.2413 58.2617 52.8038C58.5767 52.4876 58.5767 52.4876 59.0441 52.4456Z" fill="#2B2CBD"/>
<path d="M53.9216 58.4557C54.1503 58.4496 54.1503 58.4496 54.3836 58.4434C54.7975 58.4952 54.7975 58.4952 55.0903 58.7095C55.2699 58.9695 55.2699 58.9695 55.2404 59.3746C55.1125 59.76 55.1125 59.76 54.7975 60.0762C54.4045 60.1237 54.4045 60.1237 53.9413 60.1256C53.7127 60.1296 53.7127 60.1296 53.4794 60.1336C53.0654 60.0762 53.0654 60.0762 52.7726 59.8668C52.593 59.6019 52.593 59.6019 52.6225 59.1079C52.6648 58.9579 52.707 58.8079 52.7505 58.6533C53.1568 58.4494 53.4681 58.463 53.9216 58.4557Z" fill="#292ABC"/>
<path d="M62.9857 59.76C63.0377 59.76 63.0896 59.76 63.1432 59.76C63.1432 60.0209 63.1432 60.2817 63.1432 60.5505C62.3493 61.0233 61.5112 60.9187 60.6139 60.9161C60.3537 60.9199 60.3537 60.9199 60.0883 60.9238C59.8391 60.9239 59.8391 60.9239 59.5848 60.9241C59.433 60.9246 59.2812 60.925 59.1247 60.9255C58.7342 60.8667 58.7342 60.8667 58.4448 60.6457C58.2618 60.3924 58.2618 60.3924 58.2618 60.0762C58.3993 60.0722 58.5368 60.0683 58.6785 60.0642C59.187 60.0492 59.6956 60.0335 60.2041 60.0173C60.4245 60.0105 60.6449 60.0039 60.8654 59.9976C61.1816 59.9885 61.4978 59.9783 61.814 59.9681C62.0044 59.9623 62.1949 59.9565 62.3912 59.9506C62.8136 59.9672 62.8136 59.9672 62.9857 59.76Z" fill="#AFD4E0"/>
<path d="M35.7443 33.5162C36.1775 34.9091 35.351 36.6794 34.7996 37.9429C34.5381 38.2448 34.5381 38.2448 34.3272 38.4171C34.181 38.2313 34.181 38.2313 34.0319 38.0417C33.7133 37.6317 33.7133 37.6317 33.3824 37.3105C33.5123 37.1735 33.6422 37.0366 33.776 36.8955C34.2661 36.3247 34.6368 35.7102 35.0062 35.0576C35.0612 34.9605 35.1163 34.8634 35.1729 34.7633C35.4018 34.3513 35.5954 33.9648 35.7443 33.5162Z" fill="#8095FB"/>
<path d="M51.8057 13.9124C51.7605 14.1299 51.7144 14.3473 51.6679 14.5645C51.6424 14.6856 51.6168 14.8066 51.5904 14.9314C51.4775 15.3892 51.3244 15.8363 51.1759 16.2838C50.4484 15.9186 49.7209 15.5534 48.9714 15.1771C49.4856 14.7899 49.901 14.54 50.4771 14.278C50.7015 14.1743 50.7015 14.1743 50.9305 14.0686C51.3333 13.9124 51.3333 13.9124 51.8057 13.9124Z" fill="#627EFA"/>
<path d="M51.3333 22.4495C52.2101 22.5394 52.2101 22.5394 52.4356 22.7657C52.4593 23.0516 52.4705 23.3385 52.475 23.6254C52.481 23.8598 52.481 23.8598 52.4873 24.099C52.4702 24.2329 52.4532 24.3668 52.4356 24.5048C51.9632 24.821 51.9632 24.821 51.5498 24.7715C51.1759 24.6629 51.1759 24.6629 51.0184 24.5048C50.9987 24.2187 50.9907 23.9318 50.9889 23.6451C50.9866 23.4888 50.9844 23.3325 50.9821 23.1715C51.0184 22.7657 51.0184 22.7657 51.3333 22.4495Z" fill="#466BFC"/>
<path d="M62.3558 52.4481C62.8282 52.4876 62.8282 52.4876 63.1431 52.8038C63.1825 53.2781 63.1825 53.2781 63.1431 53.7524C62.8282 54.0686 62.8282 54.0686 62.4444 54.118C62.0409 54.0686 62.0409 54.0686 61.7555 53.8808C61.5052 53.4973 61.5111 53.2537 61.5685 52.8038C61.8834 52.4876 61.8834 52.4876 62.3558 52.4481Z" fill="#2C2EBD"/>
<path d="M52.593 62.6057C52.645 62.7101 52.697 62.8144 52.7505 62.9219C53.1779 62.9713 53.5912 63.0031 54.0201 63.0207C54.1992 63.0299 54.1992 63.0299 54.382 63.0392C54.6779 63.0542 54.9739 63.0673 55.2699 63.08C54.9747 63.6926 54.9747 63.6926 54.7975 63.8705C54.5161 63.8944 54.2336 63.9055 53.9512 63.91C53.7204 63.9161 53.7204 63.9161 53.4849 63.9223C53.0654 63.8705 53.0654 63.8705 52.7757 63.6574C52.5255 63.2996 52.5586 63.0323 52.593 62.6057Z" fill="#B1CBE1"/>
<path d="M58.2617 56.5981C58.3137 56.7024 58.3657 56.8068 58.4192 56.9143C58.8466 56.9637 59.2599 56.9954 59.6888 57.0131C59.8679 57.0223 59.8679 57.0223 60.0507 57.0316C60.3466 57.0466 60.6426 57.0597 60.9386 57.0724C60.6434 57.685 60.6434 57.685 60.4662 57.8629C60.1848 57.8868 59.9023 57.8979 59.6199 57.9024C59.3891 57.9085 59.3891 57.9085 59.1536 57.9147C58.7341 57.8629 58.7341 57.8629 58.4444 57.6498C58.1942 57.292 58.2273 57.0247 58.2617 56.5981Z" fill="#AFD5E0"/>
<path d="M55.5848 24.6629C55.9505 24.9382 56.1913 25.1411 56.2621 25.6077C56.2646 26.069 56.2653 26.4584 56.0572 26.8762C55.2896 26.5798 55.2896 26.5798 55.1124 26.4019C55.0383 25.4161 55.0383 25.4161 55.3486 24.9099C55.4266 24.8284 55.5045 24.7468 55.5848 24.6629Z" fill="#F8D6EB"/>
<path d="M32.4376 11.0667C32.806 11.1121 33.1736 11.1646 33.5399 11.2248C33.6383 11.6793 33.6383 11.6793 33.6973 12.1733C33.3824 12.4895 33.3824 12.4895 32.91 12.5389C32.7541 12.5226 32.5982 12.5063 32.4376 12.4895C32.1227 12.0152 32.1227 12.0152 32.1719 11.6002C32.2801 11.2248 32.2801 11.2248 32.4376 11.0667Z" fill="#B4FDDE"/>
<path d="M58.183 71.1033C58.5767 71.1429 58.5767 71.1429 58.8916 71.459C58.931 71.8543 58.931 71.8543 58.8916 72.2495C58.5767 72.5657 58.5767 72.5657 58.183 72.6052C57.7893 72.5657 57.7893 72.5657 57.4744 72.2495C57.435 71.8543 57.435 71.8543 57.4744 71.459C57.7893 71.1429 57.7893 71.1429 58.183 71.1033Z" fill="#DBFEEE"/>
<path d="M51.0184 47.1124C51.2236 47.7862 51.0764 48.3151 50.9003 48.9799C50.8735 49.0884 50.8467 49.1969 50.8191 49.3087C50.633 50.0347 50.3827 50.6987 50.0736 51.381C50.0216 51.381 49.9697 51.381 49.9161 51.381C49.9646 49.8467 50.4821 48.5317 51.0184 47.1124Z" fill="#AACDDF"/>
<path d="M52.5931 59.6019C52.8269 59.7584 52.8269 59.7584 53.0655 59.9181C53.4243 59.9899 53.4243 59.9899 53.8036 60.0169C53.9308 60.0287 54.0581 60.0405 54.1892 60.0527C54.2861 60.0605 54.3829 60.0682 54.4826 60.0762C54.1382 60.4813 54.1382 60.4813 53.6953 60.8667C53.1527 60.854 52.978 60.7788 52.5931 60.3924C52.5734 59.9774 52.5734 59.9774 52.5931 59.6019Z" fill="#B0CEE2"/>
<path d="M54.7975 55.9657C55.1937 56.1197 55.3863 56.1968 55.575 56.5882C55.5848 56.9143 55.5848 56.9143 55.3585 57.191C55.2367 57.2888 55.2367 57.2888 55.1124 57.3886C54.6147 57.172 54.4837 57.0741 54.1677 56.5981C54.3755 56.3894 54.5834 56.1807 54.7975 55.9657Z" fill="#CBF4E9"/>
<path d="M62.9857 56.7562C63.1628 57.349 63.1628 57.349 62.9857 57.7048C62.5329 57.8332 62.5329 57.8332 62.0409 57.8629C61.7456 57.6554 61.7456 57.6554 61.5685 57.3886C61.5685 57.2842 61.5685 57.1799 61.5685 57.0724C61.8914 57.0364 62.2143 57.0003 62.5373 56.9643C62.83 56.9429 62.83 56.9429 62.9857 56.7562Z" fill="#AED8DF"/>
</g>
<defs>
<clipPath id="clip0_5_5">
<rect width="77" height="83" fill="white"/>
</clipPath>
</defs>
</svg>
