<svg width="408" height="408" viewBox="0 0 408 408" fill="none" xmlns="http://www.w3.org/2000/svg">
<g clip-path="url(#clip0_5_63)">
<path d="M253.406 15.9375C263.816 24.3908 272.796 34.6613 277.811 47.2148C278.922 50.0171 278.922 50.0171 281.154 51.8653C282.846 52.3813 282.846 52.3813 285.281 52.5937C286.078 53.3906 286.078 53.3906 286.128 55.831C286.111 56.6035 286.095 57.376 286.078 58.1719C286.834 58.139 287.59 58.1061 288.369 58.0723C290.859 58.1719 290.859 58.1719 292.453 59.7656C292.719 62.2654 292.874 63.8819 291.507 66.041C289.616 67.2146 288.262 67.1146 286.078 66.9375C285.415 70.9526 285.195 74.7569 285.231 78.8408C285.237 79.6582 285.237 79.6582 285.242 80.4921C285.252 81.8177 285.266 83.1432 285.281 84.4687C286.473 84.4608 286.473 84.4608 287.689 84.4526C295.192 84.4041 302.695 84.3683 310.199 84.3449C314.056 84.3324 317.913 84.3155 321.77 84.2884C325.495 84.2623 329.22 84.2481 332.946 84.2419C334.364 84.2375 335.782 84.2289 337.2 84.216C339.193 84.1985 341.186 84.1962 343.179 84.1973C343.76 84.1887 344.34 84.1801 344.939 84.1713C350.233 84.2028 354.408 85.651 358.793 88.6025C363.439 93.3544 365.053 98.6291 364.993 105.234C364.967 106.454 364.941 107.675 364.913 108.895C364.904 110.234 364.898 111.573 364.894 112.912C364.888 115.005 364.869 117.093 364.808 119.186C364.281 127.357 364.281 127.357 367.634 134.364C369.881 135.784 372.096 136.807 374.531 137.859C392.001 150.291 403.97 169.239 407.67 190.379C410.717 213.116 405.968 235.086 392.062 253.406C385.137 261.954 377.401 268.869 367.857 274.315C365.55 275.554 365.55 275.554 364.969 278.109C365.767 278.091 366.565 278.072 367.387 278.053C368.457 278.038 369.527 278.024 370.597 278.01C371.641 277.991 372.686 277.973 373.762 277.954C378.157 278.17 381.381 278.734 384.741 281.645C387.934 285.385 388.332 287.829 388.346 292.593C388.351 293.233 388.356 293.873 388.362 294.532C388.37 295.885 388.374 297.239 388.373 298.593C388.377 300.655 388.406 302.716 388.436 304.778C388.441 306.095 388.444 307.413 388.445 308.73C388.457 309.343 388.468 309.955 388.48 310.587C388.445 314.807 387.412 316.858 384.891 320.344C384.456 322.263 384.456 322.263 384.545 324.157C384.537 324.843 384.53 325.528 384.522 326.235C384.535 327.656 384.552 329.078 384.572 330.499C384.526 334.091 384.482 335.762 382.273 338.719C379.173 340.935 376.752 341.162 372.999 341.158C371.816 341.16 371.816 341.16 370.608 341.162C369.318 341.157 369.318 341.157 368.001 341.153C367.092 341.153 366.182 341.153 365.244 341.153C362.235 341.153 359.225 341.147 356.216 341.14C354.13 341.139 352.044 341.138 349.958 341.137C345.028 341.134 340.098 341.128 335.167 341.12C329.554 341.111 323.94 341.107 318.326 341.103C306.78 341.094 295.234 341.08 283.687 341.062H282.891H281.297H280.102H274.523L258.586 341.12H219.141L191.25 341.062H171.926C171.448 340.643 138.656 341.12 138.656 341.12L122.872 341.069C122.872 340.28 124.312 341.875 124.312 341.062C123.837 341.065 123.362 341.067 122.872 341.069C111.292 341.122 99.7125 341.162 88.1327 341.186C82.5327 341.199 76.9328 341.215 71.3329 341.243C65.9284 341.269 60.5239 341.283 55.1193 341.289C53.0577 341.294 50.9961 341.302 48.9345 341.315C46.0462 341.333 43.1583 341.335 40.27 341.334C38.9923 341.347 38.9923 341.347 37.6889 341.36C33.0166 341.341 29.5883 341.018 25.4999 338.672C23.8358 336.176 23.7099 335.574 23.6883 332.73C23.6719 332.04 23.6554 331.35 23.6385 330.639C23.6179 329.197 23.6033 327.755 23.5949 326.313C23.5764 325.62 23.5579 324.927 23.5389 324.213C23.5323 323.585 23.5258 322.958 23.519 322.312C23.2127 320.171 23.2127 320.171 21.5152 318.133C19.4875 314.862 19.4584 312.577 19.4985 308.814C19.4954 308.178 19.4924 307.541 19.4892 306.886C19.4871 305.546 19.4929 304.207 19.5063 302.867C19.5233 300.826 19.5064 298.787 19.486 296.746C19.4881 295.439 19.4922 294.133 19.4985 292.827C19.492 292.221 19.4856 291.616 19.4789 290.993C19.5507 286.89 20.4299 284.564 23.1093 281.297C27.5297 278.01 31.9607 277.993 37.3037 278.06C37.8558 278.063 38.4079 278.067 38.9768 278.07C40.3283 278.08 41.6798 278.094 43.0312 278.109C41.9675 274.918 39.9576 274.157 37.2041 272.531C19.233 261.445 6.32893 243.418 1.24507 222.926C-3.53267 201.063 0.387476 178.664 12.2519 159.873C15.4252 155.032 19.087 150.775 23.1093 146.625C23.5284 146.147 23.9475 145.67 24.3793 145.178C29.1554 139.926 35.9015 135.448 42.2343 132.281C42.2501 131.401 42.2659 130.522 42.2822 129.615C42.3432 126.323 42.4139 123.03 42.4872 119.738C42.5176 118.318 42.5454 116.898 42.5705 115.479C42.6073 113.427 42.6534 111.376 42.7012 109.324C42.7151 108.386 42.7151 108.386 42.7291 107.429C42.9231 100.011 44.0379 93.8581 49.4062 88.4531C54.2368 84.8432 58.5961 84.3499 64.4589 84.3783C65.0889 84.3782 65.7189 84.378 66.3681 84.3779C68.4463 84.3785 70.5245 84.3847 72.6027 84.3909C74.0453 84.3924 75.4879 84.3935 76.9305 84.3943C80.7244 84.3974 84.5183 84.4052 88.3122 84.414C92.1848 84.4222 96.0574 84.4258 99.9299 84.4298C107.526 84.4384 115.122 84.452 122.719 84.4687C122.765 83.5038 122.812 82.5388 122.86 81.5447C122.926 80.2553 122.992 78.966 123.058 77.6766C123.088 77.0434 123.118 76.4102 123.149 75.7578C124.274 54.3072 133.8 35.0624 149.218 20.2456C178.389 -5.31541 222.334 -7.66687 253.406 15.9375Z" fill="#2928BB"/>
<path d="M72.7369 108.974C73.7901 108.982 73.7901 108.982 74.8646 108.991C75.6032 108.991 76.3419 108.99 77.1028 108.99C79.552 108.991 82.001 109.004 84.4501 109.016C86.1451 109.019 87.8401 109.021 89.5351 109.023C94.0024 109.029 98.4696 109.045 102.937 109.062C107.493 109.079 112.049 109.086 116.605 109.094C125.549 109.111 134.493 109.138 143.438 109.172C143.656 109.774 143.875 110.376 144.1 110.997C144.387 111.786 144.674 112.576 144.97 113.39C145.254 114.173 145.538 114.956 145.831 115.762C149.144 124.842 153.458 132.421 159.026 140.3C166.634 151.15 174.98 166.314 173.719 180.094C171.378 181.887 171.378 181.887 168.938 183.281C167.861 185.434 167.871 187.36 167.692 189.756C167.592 191.066 167.592 191.066 167.49 192.402C167.442 193.074 167.394 193.745 167.344 194.437C166.16 194.832 166.16 194.832 164.953 195.234C165.157 197.102 165.425 198.962 165.75 200.812C166.276 201.075 166.802 201.338 167.344 201.609C167.387 203.17 167.418 204.73 167.443 206.291C167.462 207.16 167.48 208.029 167.499 208.924C167.344 211.172 167.344 211.172 165.75 212.766C165.617 215.223 165.617 215.223 165.75 217.547C166.276 217.81 166.802 218.073 167.344 218.344C167.631 220.922 167.698 223.484 167.789 226.076C168.17 228.92 168.75 230.451 170.531 232.687C172.035 233.345 172.035 233.345 173.669 233.584C176.062 234.341 176.73 234.742 177.918 237.005C178.443 238.555 178.944 240.114 179.421 241.68C181.43 248.143 186.952 252.925 192.744 256.145C199.221 258.716 207.447 258.539 214.029 256.51C222.127 252.706 227.06 247.383 230.297 239.062C230.4 238.35 230.502 237.637 230.608 236.902C230.768 236.3 230.929 235.698 231.094 235.078C232.482 234.306 232.482 234.306 234.182 233.883C236.531 233.293 237.312 232.885 238.845 230.951C240.371 227.571 240.232 224.364 240.333 220.703C240.688 218.115 241.122 217.579 243.047 215.953C242.831 213.583 242.366 212.882 240.656 211.172C240.417 209.008 240.417 209.008 240.407 206.44C240.394 205.595 240.381 204.75 240.367 203.879C240.693 201.325 241.168 200.842 243.047 199.219C243.247 197.126 243.247 197.126 243.047 195.234C242.258 194.971 241.469 194.708 240.656 194.437C240.645 193.793 240.634 193.149 240.622 192.486C240.595 186.927 240.595 186.927 237.917 182.335C236.005 180.906 236.005 180.906 234.281 180.094C234.632 163.278 242.271 149.043 252.085 135.875C257.029 129.167 260.04 122.499 262.293 114.439C262.572 113.448 262.85 112.458 263.137 111.437C263.448 110.316 263.448 110.316 263.766 109.172C273.712 109.135 283.659 109.107 293.606 109.089C298.224 109.081 302.843 109.07 307.461 109.052C311.915 109.034 316.369 109.025 320.823 109.021C322.525 109.018 324.227 109.012 325.93 109.003C328.307 108.992 330.685 108.99 333.062 108.991C333.772 108.985 334.481 108.979 335.213 108.974C340.084 108.99 340.084 108.99 341.859 110.766C341.999 112.822 342.044 114.792 342.015 116.848C342.012 117.747 342.012 117.747 342.008 118.664C341.999 120.58 341.979 122.496 341.959 124.412C341.951 125.71 341.944 127.008 341.937 128.306C341.92 131.491 341.892 134.675 341.859 137.859C341.151 137.862 340.443 137.865 339.713 137.868C333.03 137.898 326.348 137.944 319.665 138.006C316.229 138.037 312.794 138.063 309.358 138.075C306.041 138.087 302.724 138.115 299.407 138.153C298.143 138.165 296.879 138.171 295.616 138.172C293.841 138.174 292.068 138.195 290.294 138.221C288.781 138.232 288.781 138.232 287.238 138.243C283.992 138.73 282.245 139.805 279.703 141.844C278.799 143.652 278.801 144.65 278.789 146.658C278.783 147.331 278.778 148.005 278.772 148.699C278.77 149.44 278.767 150.18 278.765 150.943C278.76 151.722 278.755 152.501 278.749 153.304C278.734 155.889 278.724 158.474 278.716 161.059C278.713 161.941 278.71 162.822 278.707 163.73C278.69 168.395 278.679 173.06 278.671 177.725C278.662 182.549 278.635 187.372 278.603 192.196C278.582 195.9 278.576 199.605 278.573 203.309C278.569 205.087 278.56 206.866 278.545 208.644C278.526 211.132 278.526 213.619 278.532 216.107C278.516 217.21 278.516 217.21 278.501 218.336C278.527 221.587 278.665 223.487 280.268 226.373C282.437 228.194 283.373 228.397 286.174 228.371C286.984 228.373 287.795 228.376 288.631 228.378C289.501 228.36 290.371 228.342 291.267 228.323C292.611 228.318 292.611 228.318 293.981 228.312C296.843 228.295 299.703 228.25 302.563 228.205C304.5 228.192 306.437 228.18 308.374 228.171C311.904 228.144 315.434 228.116 318.964 228.06C319.674 228.05 320.385 228.039 321.117 228.029C322.731 228.083 322.731 228.083 323.531 227.109C323.731 225.151 323.731 225.151 323.531 223.125C314.686 214.279 298.585 221.012 286.078 220.734C286.078 196.278 286.078 171.822 286.078 146.625C313.69 146.625 341.302 146.625 369.75 146.625C369.75 171.344 369.75 196.063 369.75 221.531C360.809 221.794 351.868 222.057 342.656 222.328C341.688 223.118 341.688 223.118 341.78 224.657C341.793 225.663 341.793 225.663 341.807 226.689C341.819 227.826 341.819 227.826 341.83 228.986C341.848 230.223 341.848 230.223 341.866 231.486C341.88 233.216 341.893 234.945 341.906 236.675C341.931 239.416 341.959 242.156 341.996 244.896C342.03 247.532 342.048 250.167 342.065 252.802C342.087 254.035 342.087 254.035 342.11 255.293C342.113 256.056 342.115 256.819 342.118 257.605C342.126 258.277 342.134 258.949 342.142 259.641C341.781 261.857 341.25 262.417 339.469 263.766C337.437 264.065 337.437 264.065 334.95 264.066C334.003 264.073 333.056 264.079 332.08 264.085C330.512 264.077 330.512 264.077 328.912 264.069C327.794 264.072 326.676 264.076 325.558 264.08C322.479 264.09 319.4 264.086 316.32 264.078C313.003 264.073 309.685 264.081 306.367 264.088C299.864 264.098 293.362 264.096 286.859 264.089C281.576 264.084 276.293 264.083 271.009 264.086C270.259 264.086 269.508 264.086 268.734 264.087C267.209 264.087 265.683 264.088 264.158 264.089C249.843 264.096 235.528 264.088 221.213 264.075C208.921 264.064 196.629 264.066 184.337 264.077C170.075 264.09 155.813 264.095 141.55 264.088C140.03 264.087 138.51 264.086 136.991 264.086C136.243 264.085 135.495 264.085 134.724 264.084C129.445 264.082 124.166 264.086 118.887 264.091C112.457 264.098 106.027 264.096 99.5968 264.084C96.3138 264.077 93.031 264.075 89.748 264.083C86.7457 264.09 83.7436 264.086 80.7413 264.073C79.1342 264.069 77.5271 264.077 75.92 264.085C74.9729 264.079 74.0259 264.073 73.0501 264.066C72.2292 264.066 71.4084 264.066 70.5627 264.065C68.5313 263.766 68.5313 263.766 67.0722 262.717C65.5235 260.486 65.8158 257.999 65.8424 255.381C65.8393 254.765 65.8361 254.149 65.8328 253.514C65.8251 251.444 65.8346 249.374 65.844 247.303C65.842 245.822 65.8391 244.34 65.8351 242.859C65.8276 238.83 65.8352 234.801 65.8458 230.773C65.8548 226.563 65.8515 222.353 65.8499 218.143C65.8492 211.074 65.8581 204.004 65.8727 196.935C65.8896 188.752 65.8924 180.57 65.8874 172.387C65.8829 164.526 65.8874 156.665 65.8963 148.805C65.9001 145.454 65.9007 142.104 65.8991 138.753C65.8976 134.811 65.904 130.869 65.9166 126.927C65.92 125.477 65.9207 124.027 65.9185 122.577C65.9159 120.604 65.9231 118.632 65.9329 116.659C65.9299 116.079 65.9269 115.499 65.9238 114.902C65.972 109.438 67.4582 108.992 72.7369 108.974Z" fill="#FEC499"/>
<path d="M60.8995 93.0427C61.9806 93.0394 61.9806 93.0394 63.0836 93.0361C64.2666 93.0447 64.2666 93.0447 65.4736 93.0534C66.7216 93.0531 66.7216 93.0531 67.9948 93.0527C70.75 93.0538 73.5051 93.0663 76.2604 93.0787C78.1686 93.0817 80.0769 93.084 81.9851 93.0856C87.0118 93.0917 92.0384 93.1073 97.0651 93.1249C102.193 93.1412 107.32 93.1485 112.448 93.1565C122.512 93.1736 132.577 93.2006 142.641 93.2344C142.689 94.09 142.737 94.9457 142.787 95.8273C142.854 96.9718 142.922 98.1163 142.989 99.2607C143.021 99.8221 143.052 100.383 143.084 100.962C143.298 104.534 143.682 108.027 144.234 111.562C143.971 110.774 143.708 109.985 143.438 109.172C133.581 109.257 123.724 109.347 113.867 109.442C109.291 109.486 104.715 109.529 100.138 109.568C95.7259 109.606 91.3134 109.648 86.901 109.692C85.2135 109.708 83.5261 109.723 81.8386 109.737C79.4837 109.756 77.129 109.78 74.7742 109.805C74.0692 109.81 73.3642 109.814 72.6378 109.819C69.5378 109.553 69.5378 109.553 66.9375 110.766C66.8597 112.731 66.834 114.674 66.8417 116.64C66.841 117.26 66.8404 117.881 66.8397 118.521C66.8383 120.623 66.8427 122.725 66.8471 124.828C66.8473 126.352 66.8472 127.876 66.8468 129.4C66.8466 133.496 66.8512 137.592 66.8568 141.688C66.8614 145.526 66.8616 149.364 66.8622 153.202C66.8663 164.44 66.8775 175.679 66.8877 186.917C66.9042 212.014 66.9206 237.111 66.9375 262.969C157.399 262.969 247.86 262.969 341.063 262.969C341.326 251.398 341.588 239.827 341.859 227.906C346.593 228.169 351.326 228.432 356.203 228.703C356.203 245.27 356.203 261.837 356.203 278.906C346.35 278.923 346.35 278.923 336.297 278.94C331.61 278.958 326.923 278.979 322.236 279.003C316.163 279.034 310.09 279.059 304.016 279.062C298.694 279.065 293.373 279.088 288.051 279.124C286.019 279.134 283.987 279.138 281.955 279.134C279.112 279.13 276.27 279.151 273.427 279.178C272.585 279.171 271.742 279.164 270.874 279.157C266.206 279.22 266.206 279.22 262.196 281.443C260.559 283.65 260.558 283.65 259.211 285.953C256.86 289.534 254.735 291.925 250.546 292.966C244.014 293.841 237.421 293.681 230.845 293.617C228.696 293.619 226.546 293.632 224.397 293.643C219.901 293.659 215.406 293.638 210.91 293.596C205.729 293.548 200.552 293.564 195.372 293.612C190.905 293.652 186.439 293.657 181.971 293.634C179.311 293.621 176.654 293.622 173.994 293.648C156.575 293.779 156.575 293.779 152.388 290.536C150.381 288.345 148.925 286.237 147.422 283.687C144.75 280.662 144.75 280.662 141.026 279.593C140.357 279.587 139.689 279.582 139 279.577C138.234 279.569 137.467 279.561 136.677 279.553C135.834 279.549 134.99 279.544 134.121 279.539C132.791 279.528 132.791 279.528 131.435 279.516C128.494 279.49 125.554 279.471 122.613 279.451C120.578 279.435 118.544 279.418 116.51 279.401C111.695 279.361 106.88 279.325 102.066 279.291C96.5849 279.251 91.1042 279.208 85.6235 279.164C74.348 279.073 63.0725 278.988 51.7969 278.906C51.777 278.331 51.757 277.756 51.7364 277.163C51.6443 274.573 51.5464 271.983 51.4483 269.394C51.417 268.488 51.3856 267.583 51.3533 266.65C51.32 265.789 51.2866 264.929 51.2522 264.043C51.223 263.246 51.1938 262.449 51.1637 261.627C51.2019 259.813 51.2019 259.813 50.2032 258.984C47.8125 258.852 47.8125 258.852 45.4219 258.984C44.1596 260.247 44.4499 261.596 44.3729 263.345C44.3228 264.42 44.3228 264.42 44.2717 265.517C44.2404 266.27 44.2091 267.023 44.1768 267.8C44.1252 268.935 44.1252 268.935 44.0725 270.092C43.9877 271.968 43.9064 273.843 43.8282 275.719C29.531 271.559 16.4795 256.295 9.52597 243.679C-0.508493 224.817 -3.7211 202.537 2.13542 181.712C6.36644 168.272 13.2969 156.749 23.1094 146.625C23.7381 145.909 23.7381 145.909 24.3794 145.178C27.4554 141.796 31.0407 139.303 34.8135 136.764C35.335 136.412 35.8564 136.06 36.3937 135.698C38.8514 134.086 40.9548 132.881 43.8282 132.281C43.8315 132.831 43.8349 133.38 43.8384 133.947C43.9206 147.3 44.0072 160.654 44.0986 174.008C44.1427 180.465 44.1853 186.923 44.2245 193.38C44.2586 199.007 44.2955 204.633 44.3357 210.26C44.3569 213.241 44.3767 216.222 44.3932 219.203C44.4117 222.525 44.4363 225.847 44.4614 229.17C44.4683 230.663 44.4683 230.663 44.4753 232.187C44.487 233.536 44.487 233.536 44.499 234.913C44.5041 235.7 44.5092 236.486 44.5145 237.297C44.4283 239.041 44.4283 239.041 45.4219 239.859C47.8125 239.992 47.8125 239.992 50.2032 239.859C51.7114 238.351 51.1027 235.706 51.1047 233.705C51.1064 233.138 51.108 232.571 51.1098 231.987C51.1146 230.074 51.1138 228.16 51.1131 226.247C51.1155 224.88 51.1183 223.514 51.1215 222.148C51.1278 219.198 51.1319 216.248 51.1345 213.298C51.1392 208.634 51.1523 203.97 51.1674 199.305C51.1724 197.71 51.1775 196.115 51.1825 194.519C51.185 193.72 51.1876 192.921 51.1902 192.098C51.2237 181.234 51.25 170.371 51.2598 159.507C51.2664 152.186 51.2844 144.865 51.315 137.544C51.3308 133.668 51.3407 129.793 51.3367 125.917C51.333 122.269 51.344 118.621 51.3662 114.974C51.3717 113.635 51.3718 112.297 51.366 110.959C51.3589 109.13 51.3714 107.302 51.3887 105.473C51.3906 104.45 51.3925 103.427 51.3945 102.373C51.8717 99.0958 52.9151 97.3867 54.9844 94.8281C57.4902 93.1576 58.0482 93.036 60.8995 93.0427Z" fill="#8282FE"/>
<path d="M202.854 45.9697C203.633 45.9672 204.411 45.9646 205.212 45.9619C217.236 46.0504 228.014 49.919 237.469 57.375C237.957 57.7325 238.445 58.0899 238.947 58.4583C248.349 65.7732 254.789 77.5583 256.594 89.25C258.166 107.337 254.668 120.877 243.495 135.319C233.367 148.553 228.652 163.719 226.312 180.094C211.586 180.094 196.86 180.094 181.687 180.094C180.899 175.886 180.11 171.679 179.297 167.344C176.146 154.273 170.189 143.05 162.354 132.169C154.853 121.747 151.117 111.822 151.157 98.9619C151.144 98.1519 151.132 97.342 151.118 96.5075C151.11 82.9786 156.585 71.3242 166.005 61.8512C166.71 61.163 167.415 60.4747 168.141 59.7656C168.926 58.9551 168.926 58.9551 169.728 58.1283C178.543 49.6164 190.863 45.7711 202.854 45.9697Z" fill="#FEC498"/>
<path d="M72.737 108.974C73.7902 108.982 73.7902 108.982 74.8647 108.991C75.6033 108.991 76.3419 108.99 77.1029 108.99C79.552 108.991 82.001 109.004 84.4501 109.016C86.1451 109.019 87.8402 109.021 89.5352 109.023C94.0025 109.029 98.4697 109.045 102.937 109.062C107.493 109.079 112.049 109.086 116.605 109.094C125.549 109.111 134.493 109.138 143.438 109.172C143.656 109.774 143.875 110.376 144.1 110.997C144.387 111.786 144.674 112.576 144.97 113.39C145.254 114.173 145.538 114.956 145.831 115.762C149.144 124.842 153.459 132.421 159.026 140.3C166.634 151.15 174.98 166.314 173.719 180.094C171.378 181.887 171.378 181.887 168.938 183.281C167.861 185.434 167.871 187.36 167.692 189.756C167.592 191.066 167.592 191.066 167.49 192.402C167.442 193.074 167.394 193.745 167.344 194.438C166.16 194.832 166.16 194.832 164.953 195.234C165.157 197.102 165.426 198.963 165.75 200.813C166.276 201.075 166.802 201.338 167.344 201.609C167.344 202.661 167.344 203.713 167.344 204.797C133.947 204.797 100.55 204.797 66.1407 204.797C66.1078 189.315 66.0749 173.832 66.0411 157.881C66.0193 150.539 66.0193 150.539 65.9971 143.049C65.9899 137.087 65.9899 137.087 65.9886 134.299C65.9861 132.346 65.9805 130.392 65.9724 128.438C65.9608 125.485 65.9592 122.532 65.9598 119.578C65.954 118.703 65.9483 117.828 65.9424 116.926C65.9446 116.135 65.9468 115.343 65.949 114.527C65.9476 113.835 65.9461 113.143 65.9446 112.43C66.4181 108.411 69.4076 108.985 72.737 108.974Z" fill="#FEFEFE"/>
<path d="M34.7061 286.55C35.6266 286.539 36.5471 286.527 37.4955 286.516C39.0119 286.515 39.0119 286.515 40.559 286.515C41.6337 286.507 42.7084 286.497 43.7831 286.487C46.7041 286.462 49.6248 286.454 52.5459 286.449C54.3716 286.445 56.1973 286.439 58.023 286.431C64.395 286.404 70.7669 286.39 77.1389 286.388C83.0739 286.386 89.0082 286.354 94.943 286.308C100.041 286.27 105.139 286.253 110.237 286.253C113.281 286.253 116.324 286.243 119.368 286.212C122.233 286.184 125.097 286.182 127.962 286.2C129.509 286.204 131.057 286.18 132.604 286.154C137.194 286.209 140.229 286.261 143.599 289.587C144.366 290.523 145.112 291.477 145.828 292.453C146.688 293.399 146.688 293.399 147.565 294.364C148.011 294.884 148.457 295.404 148.916 295.939C150.515 297.824 150.515 297.824 152.203 299.625C153.531 299.714 154.863 299.747 156.194 299.758C157.059 299.768 157.924 299.777 158.815 299.786C160.25 299.795 160.25 299.795 161.715 299.804C162.716 299.813 163.718 299.822 164.75 299.832C168.082 299.861 171.414 299.881 174.746 299.899C175.596 299.904 175.596 299.904 176.464 299.908C181.809 299.938 187.155 299.963 192.5 299.979C199.338 300.001 206.176 300.042 213.013 300.107C217.82 300.152 222.627 300.175 227.434 300.182C230.305 300.187 233.176 300.202 236.046 300.239C239.254 300.281 242.459 300.278 245.667 300.271C246.614 300.29 247.561 300.309 248.538 300.328C253.015 300.283 255.834 300.151 259.111 296.915C259.888 295.977 260.646 295.023 261.375 294.047C262.235 293.101 262.235 293.101 263.112 292.136C263.781 291.356 263.781 291.356 264.463 290.561C266.931 287.694 266.931 287.694 267.75 286.875C269.166 286.793 270.586 286.767 272.005 286.763C272.928 286.759 273.85 286.754 274.801 286.749C276.334 286.748 276.334 286.748 277.897 286.747C278.977 286.743 280.057 286.739 281.136 286.735C284.077 286.724 287.017 286.719 289.958 286.716C291.794 286.713 293.629 286.71 295.465 286.706C301.203 286.695 306.942 286.688 312.68 286.685C319.313 286.681 325.945 286.667 332.578 286.644C337.699 286.627 342.82 286.619 347.941 286.618C351.002 286.617 354.063 286.612 357.125 286.598C360.004 286.585 362.883 286.583 365.762 286.59C367.325 286.591 368.888 286.58 370.451 286.569C371.379 286.573 372.306 286.578 373.262 286.582C374.07 286.581 374.877 286.58 375.709 286.579C377.719 286.875 377.719 286.875 379.173 287.941C380.655 290.037 380.42 291.939 380.427 294.47C380.43 295.494 380.433 296.519 380.436 297.574C380.429 298.373 380.429 298.373 380.421 299.188C380.408 300.815 380.421 302.44 380.436 304.067C380.433 305.091 380.43 306.115 380.427 307.17C380.424 308.111 380.422 309.051 380.419 310.02C380.109 312.375 380.109 312.375 379.253 313.699C376.96 315.294 374.685 315.094 371.991 315.066C371.4 315.07 370.81 315.073 370.202 315.077C368.208 315.086 366.215 315.077 364.222 315.069C362.784 315.072 361.347 315.076 359.91 315.081C355.948 315.091 351.986 315.086 348.024 315.078C343.756 315.073 339.488 315.081 335.22 315.088C326.854 315.098 318.489 315.096 310.123 315.089C303.327 315.084 296.532 315.083 289.736 315.086C288.77 315.086 287.804 315.086 286.809 315.087C284.848 315.087 282.886 315.088 280.925 315.089C262.514 315.096 244.104 315.088 225.694 315.075C209.881 315.064 194.068 315.066 178.255 315.077C159.911 315.09 141.567 315.095 123.224 315.088C121.269 315.087 119.315 315.086 117.361 315.086C116.399 315.085 115.438 315.085 114.447 315.084C107.655 315.082 100.863 315.086 94.0714 315.091C85.8004 315.098 77.5293 315.096 69.2582 315.084C65.0345 315.077 60.8108 315.075 56.587 315.083C52.7261 315.09 48.8653 315.086 45.0044 315.073C43.6021 315.071 42.1999 315.072 40.7976 315.078C38.9023 315.085 37.0076 315.078 35.1123 315.066C34.2816 315.075 34.2816 315.075 33.4341 315.083C31.9125 315.065 31.9125 315.065 29.4844 314.766C26.9615 310.981 27.6246 306.905 27.6391 302.453C27.6416 300.826 27.6229 299.2 27.6027 297.574C27.6022 296.55 27.6017 295.525 27.6012 294.47C27.5988 293.53 27.5964 292.589 27.594 291.62C27.8907 289.266 27.8907 289.266 28.828 287.943C30.8387 286.465 32.2214 286.566 34.7061 286.55Z" fill="#D8D8FE"/>
<path d="M286.078 146.625C313.69 146.625 341.302 146.625 369.75 146.625C369.75 171.344 369.75 196.063 369.75 221.531C360.809 221.794 351.868 222.057 342.656 222.328C341.66 223.147 341.66 223.147 341.769 224.898C341.773 225.662 341.777 226.425 341.782 227.212C341.784 228.036 341.787 228.861 341.789 229.71C341.796 230.578 341.803 231.445 341.81 232.339C341.813 233.209 341.817 234.08 341.82 234.977C341.83 237.136 341.843 239.294 341.859 241.453C334.302 241.49 326.745 241.518 319.188 241.536C315.679 241.544 312.17 241.555 308.661 241.573C305.277 241.591 301.893 241.6 298.509 241.604C297.215 241.607 295.922 241.613 294.629 241.622C292.822 241.633 291.015 241.635 289.208 241.634C288.179 241.638 287.149 241.641 286.088 241.645C283.687 241.453 283.687 241.453 282.094 239.859C281.938 237.263 281.938 237.263 281.994 234.182C282.008 233.161 282.023 232.14 282.038 231.088C282.056 230.301 282.075 229.514 282.094 228.703C282.855 228.691 282.855 228.691 283.631 228.678C288.892 228.592 294.153 228.501 299.413 228.406C301.379 228.372 303.345 228.339 305.311 228.307C308.129 228.261 310.948 228.21 313.766 228.158C315.094 228.138 315.094 228.138 316.448 228.118C317.261 228.102 318.075 228.086 318.913 228.07C319.994 228.051 319.994 228.051 321.096 228.032C322.728 228.086 322.728 228.086 323.531 227.109C323.73 225.151 323.73 225.151 323.531 223.125C314.685 214.279 298.585 221.012 286.078 220.734C286.078 196.278 286.078 171.822 286.078 146.625Z" fill="#FE6C6C"/>
<path d="M253.406 15.9375C263.816 24.3908 272.796 34.6613 277.811 47.2148C278.922 50.0171 278.922 50.0171 281.154 51.8653C282.846 52.3813 282.846 52.3813 285.281 52.5937C286.078 53.3906 286.078 53.3906 286.128 55.831C286.111 56.6035 286.095 57.376 286.078 58.1719C286.834 58.139 287.59 58.1061 288.369 58.0723C290.859 58.1719 290.859 58.1719 292.453 59.7656C292.719 62.2654 292.874 63.8819 291.507 66.041C289.616 67.2146 288.262 67.1146 286.078 66.9375C285.415 70.9526 285.195 74.7569 285.231 78.8408C285.256 81.6266 285.256 81.6266 285.281 84.4687C278.181 84.4687 271.081 84.4687 263.766 84.4687C262.977 82.365 262.188 80.2612 261.375 78.0937C258.108 70.4497 254.254 63.5445 248.625 57.375C248.213 56.8901 247.801 56.4053 247.377 55.9057C237.305 44.7987 221.81 39.0683 207.2 38.0228C189.013 37.4006 173.665 43.9909 160.474 56.2326C152.633 64.2532 148.127 74.0879 144.234 84.4687C137.134 84.4687 130.034 84.4687 122.719 84.4687C123.691 59.3862 130.755 37.9886 149.218 20.2456C178.389 -5.31541 222.334 -7.66687 253.406 15.9375Z" fill="#CCD8FE"/>
<path d="M263.766 109.172C273.712 109.135 283.659 109.107 293.606 109.089C298.224 109.081 302.843 109.07 307.461 109.052C311.915 109.034 316.369 109.025 320.822 109.021C322.525 109.018 324.227 109.012 325.93 109.003C328.307 108.992 330.685 108.99 333.062 108.991C333.772 108.985 334.481 108.979 335.213 108.974C340.084 108.99 340.084 108.99 341.859 110.766C341.999 112.822 342.044 114.792 342.015 116.848C342.013 117.447 342.011 118.046 342.008 118.664C341.999 120.58 341.979 122.496 341.959 124.412C341.951 125.71 341.944 127.008 341.937 128.306C341.92 131.491 341.892 134.675 341.859 137.859C341.151 137.862 340.443 137.865 339.713 137.868C333.03 137.898 326.348 137.944 319.665 138.006C316.229 138.037 312.794 138.063 309.358 138.075C306.041 138.087 302.724 138.115 299.407 138.153C298.143 138.165 296.879 138.171 295.616 138.172C293.841 138.174 292.068 138.195 290.294 138.221C288.781 138.232 288.781 138.232 287.238 138.243C283.992 138.73 282.245 139.805 279.703 141.844C278.517 144.216 278.764 146.648 278.743 149.251C278.735 149.85 278.727 150.448 278.719 151.065C278.694 153.049 278.674 155.032 278.654 157.015C278.638 158.389 278.621 159.762 278.604 161.136C278.56 164.754 278.521 168.372 278.482 171.991C278.435 176.33 278.382 180.67 278.33 185.009C278.252 191.605 278.182 198.201 278.109 204.797C265.75 204.797 253.39 204.797 240.656 204.797C240.656 203.745 240.656 202.693 240.656 201.609C241.051 201.231 241.445 200.853 241.852 200.464C243.275 199.248 243.275 199.248 243.196 197.077C243.147 196.469 243.098 195.861 243.047 195.234C242.258 194.971 241.469 194.708 240.656 194.437C240.645 193.793 240.634 193.149 240.622 192.486C240.595 186.927 240.595 186.927 237.917 182.335C236.005 180.906 236.005 180.906 234.281 180.094C234.632 163.278 242.271 149.043 252.085 135.875C257.029 129.167 260.04 122.499 262.293 114.439C262.572 113.448 262.85 112.458 263.137 111.437C263.344 110.69 263.552 109.942 263.766 109.172Z" fill="#FDFDFE"/>
<path d="M43.8282 132.281C43.8293 132.829 43.8305 133.377 43.8317 133.942C43.8612 147.27 43.9082 160.597 43.9747 173.925C44.0065 180.37 44.0323 186.815 44.0441 193.26C44.0545 198.877 44.0759 204.493 44.1108 210.11C44.1288 213.085 44.1413 216.059 44.1405 219.034C44.1398 222.353 44.1638 225.671 44.19 228.989C44.186 229.979 44.182 230.969 44.1779 231.989C44.189 232.89 44.2001 233.792 44.2115 234.721C44.2144 235.506 44.2174 236.292 44.2204 237.101C44.4417 239.188 44.4417 239.188 46.2189 240.423C46.7448 240.763 47.2707 241.103 47.8125 241.453C48.225 243.15 48.225 243.15 48.2359 245.089C48.2421 246.14 48.2421 246.14 48.2483 247.212C48.236 247.941 48.2237 248.67 48.211 249.422C48.2233 250.151 48.2356 250.881 48.2483 251.632C48.2422 252.683 48.2422 252.683 48.2359 253.755C48.2323 254.395 48.2287 255.035 48.225 255.694C47.8125 257.391 47.8125 257.391 46.2227 258.581C44.4678 259.637 44.4678 259.637 44.19 261.516C44.1733 262.171 44.1566 262.826 44.1395 263.501C44.1138 264.212 44.0881 264.924 44.0616 265.657C44.0503 266.397 44.039 267.137 44.0274 267.899C43.992 269.023 43.992 269.023 43.9558 270.17C43.8995 272.02 43.8575 273.869 43.8282 275.719C29.531 271.559 16.4795 256.295 9.52597 243.679C-0.508493 224.817 -3.7211 202.537 2.13542 181.712C6.36644 168.272 13.2969 156.749 23.1094 146.625C23.5285 146.147 23.9476 145.67 24.3794 145.178C28.321 140.844 37.8008 132.281 43.8282 132.281Z" fill="#BFCDFE"/>
<path d="M364.172 132.281C373.044 135.598 379.848 141.676 386.484 148.219C387.068 148.792 387.651 149.365 388.252 149.956C402.994 165.457 408.543 186.066 408.375 206.921C407.783 230.186 397.687 248.579 381.51 264.755C377.609 268.428 369.731 275.719 364.172 275.719C364.172 260.467 364.172 245.214 364.172 229.5C368.905 228.711 368.905 228.711 373.734 227.906C376.073 226.173 376.724 225.14 377.188 222.286C377.34 220.23 377.352 218.206 377.334 216.145C377.34 215.365 377.345 214.586 377.351 213.783C377.365 211.211 377.356 208.639 377.345 206.067C377.347 204.278 377.35 202.488 377.354 200.699C377.359 196.951 377.352 193.202 377.337 189.454C377.319 184.649 377.33 179.845 377.349 175.04C377.36 171.346 377.357 167.651 377.348 163.957C377.346 162.186 377.349 160.414 377.356 158.642C377.364 156.166 377.352 153.691 377.334 151.215C377.341 150.483 377.347 149.751 377.354 148.997C377.31 145.692 377.193 143.887 375.453 141.005C373.248 139.014 371.681 138.757 368.754 138.407C367.895 138.295 367.036 138.183 366.152 138.068C365.498 137.999 364.845 137.93 364.172 137.859C364.172 136.019 364.172 134.178 364.172 132.281Z" fill="#CDD9FE"/>
<path d="M123.516 322.734C176.635 322.734 229.755 322.734 284.484 322.734C284.484 337.078 284.484 337.078 283.687 340.266C231.094 340.266 178.5 340.266 124.312 340.266C122.894 334.591 123.516 328.584 123.516 322.734Z" fill="#A8B3F3"/>
<path d="M265.359 93.2344C276.304 93.1804 287.248 93.1365 298.193 93.1105C303.275 93.098 308.357 93.0811 313.439 93.054C318.342 93.0281 323.245 93.0137 328.149 93.0075C330.02 93.0031 331.892 92.9945 333.764 92.9816C336.383 92.9643 339.002 92.9619 341.622 92.963C342.397 92.9544 343.173 92.9458 343.972 92.9369C347.907 92.955 350.631 93.0342 353.813 95.625C357.15 99.3209 356.506 103.849 356.437 108.54C356.434 109.304 356.432 110.067 356.429 110.854C356.417 113.697 356.383 116.539 356.353 119.382C356.303 125.742 356.254 132.103 356.203 138.656C332.536 138.656 308.869 138.656 284.484 138.656C284.484 138.393 284.484 138.13 284.484 137.859C303.418 137.859 322.352 137.859 341.859 137.859C344.218 122.552 344.218 122.552 340.266 109.969C337.913 109.869 335.579 109.82 333.226 109.805C332.487 109.797 331.749 109.789 330.988 109.781C328.535 109.756 326.081 109.736 323.628 109.717C321.932 109.7 320.235 109.683 318.539 109.666C314.066 109.622 309.592 109.583 305.118 109.545C300.556 109.505 295.995 109.46 291.434 109.416C282.477 109.33 273.52 109.25 264.562 109.172C264.825 103.912 265.088 98.6531 265.359 93.2344Z" fill="#8585FE"/>
<path d="M286.078 146.625C313.69 146.625 341.302 146.625 369.75 146.625C369.75 152.673 369.75 158.722 369.75 164.953C342.138 164.953 314.527 164.953 286.078 164.953C286.078 158.905 286.078 152.857 286.078 146.625Z" fill="#FEC498"/>
<path d="M211.172 0C223.547 0.514545 233.981 4.40394 244.641 10.3594C245.438 10.8031 246.235 11.2469 247.056 11.7041C261.106 20.102 272.779 33.9329 279.208 48.9705C279.933 51.9409 279.501 54.0078 278.296 56.7836C276.771 58.9364 275.048 59.2837 272.531 59.7656C272.005 60.2916 271.479 60.8175 270.938 61.3594C263.14 53.5993 255.347 45.8346 247.56 38.0645C243.944 34.4571 240.327 30.8512 236.707 27.2486C233.215 23.7748 229.728 20.2972 226.244 16.8168C224.911 15.4866 223.576 14.1579 222.24 12.8306C220.376 10.9777 218.516 9.11999 216.658 7.26098C216.099 6.70786 215.54 6.15473 214.965 5.58485C214.462 5.07978 213.959 4.57471 213.441 4.05434C213 3.61508 212.559 3.17581 212.105 2.72324C211.172 1.59375 211.172 1.59375 211.172 0Z" fill="#CFDBFF"/>
<path d="M326.859 224.357C327.515 224.374 328.17 224.39 328.845 224.407C329.556 224.418 330.267 224.428 331 224.439C331.74 224.465 332.481 224.492 333.243 224.52C333.992 224.534 334.742 224.548 335.514 224.563C337.364 224.601 339.213 224.653 341.062 224.719C341.797 226.923 341.953 228.211 341.937 230.481C341.933 231.44 341.933 231.44 341.929 232.418C341.919 233.414 341.919 233.414 341.909 234.431C341.906 235.104 341.902 235.777 341.898 236.471C341.889 238.132 341.875 239.792 341.859 241.453C334.302 241.49 326.745 241.518 319.188 241.536C315.679 241.544 312.17 241.555 308.661 241.573C305.277 241.591 301.893 241.6 298.509 241.604C297.215 241.607 295.922 241.613 294.629 241.622C292.822 241.633 291.015 241.635 289.208 241.634C288.179 241.638 287.149 241.641 286.088 241.645C283.687 241.453 283.687 241.453 282.094 239.859C281.938 237.263 281.938 237.263 281.994 234.182C282.008 233.161 282.023 232.14 282.038 231.088C282.056 230.301 282.075 229.514 282.094 228.703C282.598 228.7 283.101 228.697 283.621 228.694C288.856 228.661 294.091 228.606 299.326 228.538C301.281 228.515 303.236 228.498 305.19 228.487C307.998 228.47 310.804 228.433 313.611 228.392C314.487 228.391 315.364 228.39 316.267 228.389C317.081 228.373 317.894 228.357 318.732 228.341C319.807 228.331 319.807 228.331 320.904 228.32C323.92 227.638 323.961 224.962 326.859 224.357Z" fill="#FB9A36"/>
<path d="M205.594 0C208.034 -0.398438 208.034 -0.398438 211.172 0C212.501 1.23312 212.501 1.23312 213.807 2.85628C216.508 6.10247 219.364 9.09697 222.358 12.073C222.887 12.6024 223.416 13.1319 223.962 13.6774C225.689 15.4038 227.418 17.1275 229.148 18.8511C230.355 20.0567 231.562 21.2625 232.769 22.4684C235.928 25.6247 239.09 28.7786 242.252 31.932C245.486 35.1571 248.717 38.3846 251.948 41.6118C258.276 47.9309 264.606 54.2475 270.938 60.5625C271.288 60.1711 271.638 59.7798 271.999 59.3765C273.328 58.1719 273.328 58.1719 275.47 58.0225C276.382 58.0964 276.382 58.0964 277.312 58.1719C277.46 57.0378 277.46 57.0378 277.611 55.8809C278.109 53.3906 278.109 53.3906 279.703 51.7969C282.094 51.5977 282.094 51.5977 284.484 51.7969C286.078 53.3906 286.078 53.3906 286.178 55.8809C286.145 56.6369 286.112 57.3929 286.078 58.1719C286.834 58.139 287.59 58.1061 288.369 58.0723C290.859 58.1719 290.859 58.1719 292.453 59.7656C292.719 62.2655 292.874 63.8819 291.507 66.041C289.616 67.2147 288.262 67.1146 286.078 66.9375C285.498 70.9168 284.975 74.8992 284.484 78.8906C279.928 75.1013 275.727 71.0434 271.543 66.8494C270.469 65.7777 270.469 65.7777 269.374 64.6843C267.426 62.7403 265.481 60.7939 263.537 58.8469C261.498 56.8062 259.458 54.7676 257.417 52.7285C253.998 49.3104 250.58 45.8907 247.163 42.47C243.209 38.5113 239.251 34.5555 235.293 30.6011C231.89 27.2025 228.49 23.8023 225.09 20.4009C223.061 18.3705 221.032 16.3406 219 14.3122C216.743 12.0575 214.489 9.79959 212.235 7.54132C211.558 6.86618 210.882 6.19103 210.184 5.49542C209.575 4.88437 208.967 4.27332 208.339 3.64376C207.806 3.11007 207.273 2.57638 206.723 2.02652C205.594 0.796875 205.594 0.796875 205.594 0Z" fill="#CCDBFF"/>
<path d="M175.312 202.406C194.246 202.406 213.18 202.406 232.688 202.406C232.688 205.299 232.688 208.192 232.688 211.172C213.754 211.172 194.82 211.172 175.312 211.172C175.312 208.279 175.312 205.387 175.312 202.406Z" fill="#9090FD"/>
<path d="M93.0834 228.484C93.6318 228.48 94.1801 228.476 94.7451 228.472C96.5575 228.461 98.3697 228.462 100.182 228.463C101.441 228.46 102.701 228.457 103.96 228.453C106.6 228.447 109.239 228.447 111.878 228.452C115.263 228.456 118.647 228.443 122.031 228.424C124.632 228.412 127.232 228.412 129.833 228.414C131.081 228.414 132.329 228.41 133.577 228.402C135.32 228.392 137.063 228.397 138.807 228.406C139.8 228.406 140.792 228.405 141.815 228.405C144.234 228.703 144.234 228.703 145.781 229.761C146.625 231.094 146.625 231.094 146.426 233.584C145.828 235.875 145.828 235.875 145.031 236.672C143.231 236.756 141.428 236.782 139.626 236.788C139.061 236.79 138.496 236.793 137.914 236.796C136.038 236.803 134.161 236.805 132.284 236.806C130.985 236.808 129.686 236.811 128.387 236.814C125.659 236.819 122.932 236.82 120.205 236.82C116.704 236.819 113.204 236.83 109.703 236.844C107.018 236.853 104.334 236.855 101.649 236.854C100.359 236.855 99.0676 236.859 97.7767 236.865C95.9736 236.873 94.1708 236.87 92.3677 236.865C91.3402 236.867 90.3127 236.868 89.2541 236.869C86.8594 236.672 86.8594 236.672 85.2656 235.078C85.0166 232.687 85.0166 232.687 85.2656 230.297C88.1843 228.351 89.6033 228.497 93.0834 228.484Z" fill="#8785FB"/>
<path d="M92.2692 214.937C93.1032 214.931 93.1032 214.931 93.9541 214.925C95.7967 214.914 97.6391 214.915 99.4818 214.917C100.76 214.913 102.038 214.91 103.317 214.906C105.998 214.9 108.68 214.901 111.362 214.905C114.801 214.909 118.239 214.896 121.678 214.877C124.319 214.866 126.96 214.865 129.601 214.867C130.869 214.867 132.137 214.863 133.405 214.855C135.177 214.845 136.949 214.85 138.721 214.86C139.731 214.859 140.74 214.859 141.779 214.858C144.234 215.156 144.234 215.156 145.784 216.242C146.625 217.547 146.625 217.547 146.476 219.589C145.828 221.531 145.828 221.531 144.234 223.125C141.875 223.327 141.875 223.327 138.812 223.331C138.255 223.334 137.697 223.337 137.123 223.34C135.277 223.347 133.43 223.342 131.584 223.337C130.304 223.338 129.023 223.339 127.743 223.341C125.058 223.344 122.373 223.34 119.688 223.333C116.242 223.324 112.796 223.329 109.35 223.338C106.706 223.344 104.062 223.342 101.417 223.338C100.147 223.337 98.8757 223.339 97.6048 223.342C95.8304 223.346 94.0563 223.34 92.2819 223.331C90.7655 223.329 90.7655 223.329 89.2185 223.327C86.8594 223.125 86.8594 223.125 85.2656 221.531C85.0664 219.141 85.0664 219.141 85.2656 216.75C87.5389 214.477 89.0848 214.949 92.2692 214.937Z" fill="#8584FD"/>
<path d="M175.312 219.141C194.246 219.141 213.18 219.141 232.688 219.141C232.688 221.77 232.688 224.4 232.688 227.109C213.754 227.109 194.82 227.109 175.312 227.109C175.312 224.48 175.312 221.85 175.312 219.141Z" fill="#8F8FFC"/>
<path d="M184.875 235.078C197.498 235.078 210.12 235.078 223.125 235.078C220.569 242.746 218.301 246.098 211.321 249.82C204.169 250.942 198.087 250.889 191.972 246.68C187.233 242.979 187.055 241.619 184.875 235.078Z" fill="#D8D8FE"/>
<path d="M220.499 134.003C222.328 134.672 222.328 134.672 223.922 136.266C224.32 138.059 224.32 138.059 223.922 140.25C222.746 141.255 222.746 141.255 221.546 142.28C218.802 144.939 218.562 147.068 218.477 150.797C218.488 151.885 218.488 151.885 218.499 152.994C218.489 153.748 218.478 154.501 218.466 155.278C218.437 157.673 218.44 160.067 218.443 162.463C218.429 164.092 218.412 165.721 218.394 167.35C218.352 171.333 218.34 175.314 218.344 179.297C215.714 179.297 213.084 179.297 210.375 179.297C210.177 174.109 210.033 168.924 209.937 163.733C209.897 161.97 209.843 160.208 209.774 158.447C209.186 143.105 209.186 143.105 212.044 138.836C216.8 133.783 216.8 133.783 220.499 134.003Z" fill="#FF7402"/>
<path d="M188.313 134.065C191.723 135.032 193.695 136.518 196.137 139.073C199.63 145.577 198.326 153.845 198.073 161.019C198.037 162.79 198.005 164.562 197.975 166.334C197.896 170.656 197.773 174.976 197.625 179.297C194.995 179.297 192.366 179.297 189.656 179.297C189.657 178.284 189.658 177.271 189.659 176.227C189.656 172.458 189.622 168.689 189.578 164.92C189.564 163.29 189.558 161.661 189.561 160.032C189.563 157.685 189.535 155.34 189.501 152.994C189.508 152.269 189.515 151.544 189.523 150.797C189.438 147.069 189.197 144.937 186.457 142.277C185.672 141.608 184.887 140.939 184.078 140.25C183.563 137.791 183.691 136.876 185.024 134.771C186.469 133.875 186.469 133.875 188.313 134.065Z" fill="#FF7402"/>
<path d="M175.312 188.062C194.246 188.062 213.18 188.062 232.688 188.062C232.688 190.166 232.688 192.27 232.688 194.438C213.754 194.438 194.82 194.438 175.312 194.438C175.312 192.334 175.312 190.23 175.312 188.062Z" fill="#8E8EFB"/>
<path d="M317.953 180.094C320.759 180.462 322.92 181.258 325.38 182.628C326.316 183.147 326.316 183.147 327.27 183.677C327.91 184.039 328.55 184.402 329.209 184.775C329.855 185.132 330.501 185.488 331.167 185.856C334.005 187.446 336.446 188.844 338.672 191.25C337.501 194.949 334.427 196.278 331.251 198.073C330.721 198.381 330.192 198.689 329.646 199.006C328.612 199.606 327.575 200.2 326.533 200.788C325.321 201.495 324.154 202.279 322.999 203.076C320.673 204.233 319.619 203.802 317.156 203.203C317.137 200.04 317.122 196.877 317.112 193.714C317.108 192.637 317.103 191.56 317.096 190.484C317.087 188.939 317.082 187.394 317.078 185.849C317.074 184.919 317.07 183.988 317.066 183.029C317.156 180.891 317.156 180.891 317.953 180.094Z" fill="#FFFCFC"/>
<path d="M90.3799 187.856C91.4729 187.849 91.4729 187.849 92.5879 187.841C93.3765 187.844 94.1651 187.848 94.9775 187.851C95.7851 187.849 96.5927 187.848 97.4248 187.846C99.1343 187.845 100.844 187.848 102.553 187.855C105.177 187.863 107.8 187.855 110.423 187.845C112.081 187.846 113.739 187.848 115.397 187.851C116.186 187.848 116.975 187.844 117.787 187.841C118.516 187.846 119.244 187.851 119.995 187.856C120.959 187.858 120.959 187.858 121.943 187.86C123.516 188.063 123.516 188.063 125.109 189.656C125.397 191.896 125.509 193.117 124.114 194.945C122.369 196.304 121.461 196.33 119.267 196.328C118.573 196.333 117.879 196.338 117.163 196.343C116.416 196.336 115.669 196.328 114.899 196.321C113.746 196.321 113.746 196.321 112.569 196.322C110.942 196.32 109.316 196.312 107.689 196.299C105.197 196.28 102.706 196.283 100.213 196.288C98.634 196.284 97.0548 196.278 95.4756 196.271C94.3549 196.272 94.3549 196.272 93.2116 196.273C92.5175 196.266 91.8235 196.258 91.1083 196.25C90.498 196.246 89.8876 196.243 89.2588 196.239C87.6562 196.031 87.6562 196.031 85.2656 194.438C85.0166 192.047 85.0166 192.047 85.2656 189.656C87.211 187.711 87.7127 187.862 90.3799 187.856Z" fill="#8888FF"/>
<path d="M304.556 347.736C305.295 347.901 306.035 348.065 306.797 348.234C307.06 350.075 307.323 351.916 307.594 353.813C308.498 353.911 309.402 354.01 310.333 354.111C311.27 354.276 312.207 354.44 313.172 354.609C314.273 356.811 314.121 358.552 313.969 360.984C312.375 362.578 312.375 362.578 309.885 362.678C308.751 362.628 308.751 362.628 307.594 362.578C307.627 363.334 307.659 364.09 307.693 364.869C307.594 367.359 307.594 367.359 306 368.953C303.659 369.252 303.659 369.252 301.219 368.953C299.725 367.559 299.725 367.559 298.828 365.766C298.828 364.714 298.828 363.662 298.828 362.578C298.22 362.644 297.612 362.71 296.985 362.777C294.844 362.578 294.844 362.578 293.35 361.233C292.453 359.391 292.453 359.391 292.553 357.299C293.25 355.406 293.25 355.406 295.641 353.813C296.693 353.813 297.744 353.813 298.828 353.813C298.951 352.678 298.951 352.678 299.077 351.521C299.854 347.992 300.994 347.317 304.556 347.736Z" fill="#8383FF"/>
<path d="M282.094 51.5977C284.484 51.7969 284.484 51.7969 286.078 53.3906C286.178 55.8809 286.178 55.8809 286.078 58.1719C287.212 58.1226 287.212 58.1226 288.369 58.0723C290.859 58.1719 290.859 58.1719 292.453 59.7656C292.719 62.2655 292.874 63.8819 291.507 66.041C289.616 67.2147 288.262 67.1146 286.078 66.9375C285.815 68.7783 285.552 70.6191 285.281 72.5156C283.04 73.0137 283.04 73.0137 280.5 73.3125C278.109 71.7188 278.109 71.7188 277.562 69.2285C277.479 68.4725 277.397 67.7164 277.313 66.9375C276.556 66.8553 275.8 66.7731 275.021 66.6885C272.531 66.1406 272.531 66.1406 270.938 63.75C271.196 61.1025 271.422 60.0782 273.328 58.1719C275.42 58.0723 275.42 58.0723 277.313 58.1719C277.411 57.4158 277.51 56.6598 277.611 55.8809C278.265 52.6128 278.733 51.8777 282.094 51.5977Z" fill="#8585FF"/>
<path d="M109.172 354.609C111.904 356.887 114.738 359.367 116.344 362.578C116.493 364.969 116.493 364.969 116.344 367.359C114.75 368.953 114.75 368.953 112.459 369.252C109.47 368.893 108.642 368.056 106.781 365.766C104.815 366.683 103.556 367.397 102 368.953C99.5055 369.218 97.873 369.333 95.6748 368.057C94.37 365.754 94.9599 364.291 95.625 361.781C97.2157 359.773 97.2157 359.773 99.1611 357.946C99.8011 357.333 100.441 356.72 101.1 356.088C104.019 353.545 105.452 353.438 109.172 354.609Z" fill="#FF6C6C"/>
<path d="M306 35.8594C308.288 37.4345 308.288 37.4345 310.333 39.5449C311.022 40.2291 311.712 40.9132 312.422 41.6181C314.241 44.2164 314.426 45.5027 313.969 48.6094C312.375 50.2031 312.375 50.2031 309.735 50.502C306.39 50.1617 305.187 49.3186 302.813 47.0156C302.402 47.5416 301.991 48.0675 301.567 48.6094C299.625 50.2031 299.625 50.2031 296.736 50.5518C295.849 50.4367 294.961 50.3217 294.047 50.2031C292.453 47.8125 292.453 47.8125 292.547 45.5153C293.37 42.6091 294.419 41.2791 296.537 39.1465C297.131 38.524 297.725 37.9015 298.336 37.2601C301.132 35.3827 302.692 35.3476 306 35.8594Z" fill="#FF6B6B"/>
<path d="M145.859 347.802C148.842 348.349 149.957 349.356 152.054 351.521C152.667 352.132 153.28 352.742 153.912 353.37C155.615 355.716 156.012 357.315 156.188 360.188C155.341 361.731 155.341 361.731 153.797 362.578C149.908 362.494 147.86 361.173 145.031 358.594C144.472 359.268 143.914 359.941 143.338 360.636C141.047 362.578 141.047 362.578 138.407 362.429C137.7 362.215 136.994 362.001 136.266 361.781C135.64 359.263 135.64 359.263 135.469 356.203C136.966 353.915 136.966 353.915 139.104 351.87C139.796 351.181 140.487 350.492 141.199 349.781C143.438 348.234 143.438 348.234 145.859 347.802Z" fill="#FC9E3B"/>
<path d="M188.859 242.25C198.852 242.25 208.845 242.25 219.141 242.25C217.693 245.144 217.308 245.883 214.857 247.579C214.391 247.911 213.925 248.243 213.444 248.585C208.914 251.156 202.474 250.977 197.522 249.823C194.112 248.473 191.484 246.341 188.859 243.844C188.859 243.318 188.859 242.792 188.859 242.25Z" fill="#E9E9FE"/>
<path d="M341.859 227.906C346.593 228.169 351.326 228.432 356.203 228.703C356.203 232.911 356.203 237.118 356.203 241.453C351.47 241.453 346.736 241.453 341.859 241.453C341.859 236.983 341.859 232.512 341.859 227.906Z" fill="#4C4CFD"/>
<path d="M90.0469 173.52C92.4375 173.719 92.4375 173.719 94.0312 175.312C94.2305 177.305 94.2305 177.305 94.0312 179.297C92.4375 180.891 92.4375 180.891 90.0469 181.09C87.6562 180.891 87.6562 180.891 86.0625 179.297C85.8633 177.305 85.8633 177.305 86.0625 175.312C87.6562 173.719 87.6562 173.719 90.0469 173.52Z" fill="#8888FF"/>
<path d="M102.747 173.569C105.188 173.719 105.188 173.719 106.781 175.312C106.98 177.305 106.98 177.305 106.781 179.297C105.188 180.891 105.188 180.891 102.797 181.14C102.008 181.057 101.219 180.975 100.406 180.891C98.8125 178.5 98.8125 178.5 99.0615 176.408C99.8486 173.689 99.8337 173.755 102.747 173.569Z" fill="#8787FF"/>
<path d="M315.214 153.747C316.175 153.772 316.175 153.772 317.156 153.797C317.461 155.117 317.725 156.446 317.953 157.781C317.156 158.578 317.156 158.578 315.114 158.628C314.153 158.603 314.153 158.603 313.172 158.578C312.867 157.258 312.603 155.929 312.375 154.594C313.172 153.797 313.172 153.797 315.214 153.747Z" fill="#FF726F"/>
<path d="M306.448 153.747C307.41 153.772 307.41 153.772 308.391 153.797C308.695 155.117 308.96 156.446 309.188 157.781C308.391 158.578 308.391 158.578 306.349 158.628C305.387 158.603 305.387 158.603 304.406 158.578C304.102 157.258 303.837 155.929 303.609 154.594C304.406 153.797 304.406 153.797 306.448 153.747Z" fill="#FF736F"/>
<path d="M295.641 153.797C296.976 154.025 298.305 154.289 299.625 154.594C299.625 155.646 299.625 156.697 299.625 157.781C298.31 158.044 296.995 158.307 295.641 158.578C295.336 157.258 295.072 155.929 294.844 154.594C295.107 154.331 295.37 154.068 295.641 153.797Z" fill="#FF6F6D"/>
</g>
<defs>
<clipPath id="clip0_5_63">
<rect width="408" height="408" fill="white"/>
</clipPath>
</defs>
</svg>
